<?xml version="1.0" standalone="no"?>
<!DOCTYPE svg PUBLIC "-//W3C//DTD SVG 1.1//EN" "http://www.w3.org/Graphics/SVG/1.1/DTD/svg11.dtd" >
<svg xmlns="http://www.w3.org/2000/svg">
<metadata></metadata>
<defs>
<font id="koch_geometricregular" horiz-adv-x="520" >
<font-face units-per-em="1000" ascent="800" descent="-200" />
<missing-glyph horiz-adv-x="250" />
<glyph unicode="&#xfb01;" horiz-adv-x="505" d="M76 -7v434h-68l18 53h50q-1 116 43 165.5t147 45.5l17 -55q-6 0 -13.5 0.5t-12 1t-7.5 0.5q-120 0 -120 -128q0 -17 1 -30h143v-53h-143v-420zM397 580l-43 53l43 55l43 -55zM373 -7v481l55 13v-480z" />
<glyph unicode="&#xfb02;" horiz-adv-x="505" d="M76 -7v434h-68l18 53h50q-1 116 43 165.5t147 45.5l17 -55q-6 0 -13.5 0.5t-12 1t-7.5 0.5q-120 0 -120 -128q0 -17 1 -30h143v-53h-143v-420zM373 -7v674l55 13v-673z" />
<glyph horiz-adv-x="0" />
<glyph horiz-adv-x="333" />
<glyph unicode=" "  horiz-adv-x="250" />
<glyph unicode="&#x09;" horiz-adv-x="250" />
<glyph unicode="&#xa0;" horiz-adv-x="250" />
<glyph unicode="!" horiz-adv-x="264" d="M105 157l-7 515l62 14v-522zM80 44l52 61l52 -61l-52 -58z" />
<glyph unicode="&#x22;" horiz-adv-x="302" d="M195 398l-10 269h60l-9 -269h-41zM67 398l-10 269h60l-10 -269h-40z" />
<glyph unicode="#" d="M95 69l25 147h-109l8 47h109l23 140h-109l8 48h110l24 146h58l-24 -146h124l25 146h58l-24 -146h107l-8 -48h-107l-24 -140h108l-8 -47h-108l-24 -147h-59l25 147h-125l-24 -147h-59zM186 263h125l23 140h-124z" />
<glyph unicode="$" d="M68 172l41 38q49 -70 127 -75v214q-67 15 -101 42q-52 41 -52 111q0 66 41 108.5t112 49.5v53l46 9v-62q40 -4 80 -24t62 -47l-35 -42q-49 57 -107 57v-201q76 -14 117 -55t41 -104q0 -65 -42 -107.5t-116 -53.5v-88l-46 -10v98q-98 6 -168 89zM236 409v195 q-42 -2 -70 -30.5t-28 -68.5q0 -57 47 -80q17 -8 51 -16zM282 135q48 5 75.5 33t27.5 71q0 42 -27.5 70t-75.5 34v-208z" />
<glyph unicode="%" horiz-adv-x="779" d="M150 0l360 569q-50 -29 -84 -29q-25 0 -58 16q4 -23 4 -39q0 -75 -47 -124.5t-119 -49.5q-70 0 -119.5 49t-49.5 118t48.5 117.5t118.5 48.5q61 0 116 -43q45 -35 62.5 -44t42.5 -9q32 0 68 22t91 77l11 11l34 -16l-440 -691zM206 391q46 0 80.5 35t34.5 82 q0 49 -34 84.5t-81 35.5q-49 0 -82 -34.5t-33 -85.5q0 -50 33 -83.5t82 -33.5zM406 160q0 70 49.5 119t120.5 49q69 0 118 -50t49 -121q0 -68 -49.5 -116t-119.5 -48t-119 48.5t-49 118.5zM459 160q0 -51 33 -84.5t83 -33.5q48 0 81.5 34t33.5 83q0 51 -33.5 86t-82.5 35 t-82 -34.5t-33 -85.5z" />
<glyph unicode="&#x26;" horiz-adv-x="586" d="M399 121l-48 -46q-56 -54 -83 -69t-67 -15q-68 0 -114.5 49.5t-46.5 121.5q0 75 84 153l65 61q-7 12 -10 15q-35 52 -42 74q-12 35 -12 66q0 63 39.5 104t100.5 41q57 0 94.5 -35t37.5 -88q0 -54 -53 -111l-76 -75l137 -164l118 118l36 -38l-119 -120l119 -141l-49 -31z M232 412q12 10 18 16q32 27 61 62q27 34 27 66q0 28 -20.5 47t-52.5 19q-37 0 -60.5 -26.5t-23.5 -68.5q0 -57 51 -115zM226 332l-52 -49q-45 -42 -59 -65.5t-14 -57.5q0 -45 30.5 -78t72.5 -33q49 0 109 61l52 53z" />
<glyph unicode="'" horiz-adv-x="174" d="M67 398l-10 269h60l-10 -269h-40z" />
<glyph unicode="(" horiz-adv-x="341" d="M301 -143l-22 -44q-87 40 -161 161q-78 128 -78 276q0 177 107 312q61 79 130 118l18 -49q-73 -52 -116 -113q-84 -120 -84 -265q0 -125 53.5 -228t152.5 -168z" />
<glyph unicode=")" horiz-adv-x="341" d="M46 -138q98 70 149 166.5t51 211.5q0 125 -53.5 228t-152.5 169l21 43q86 -38 162 -161q78 -128 78 -276q0 -176 -107 -311q-63 -81 -130 -119z" />
<glyph unicode="*" d="M172 365l-44 20l90 107l-118 71l16 45l118 -71v133l46 12v-145l108 65l37 -31l-128 -78l83 -99l-28 -40l-94 113z" />
<glyph unicode="+" d="M233 117v190h-183l13 53h171v177l53 13v-190h183l-13 -53h-171v-177z" />
<glyph unicode="," horiz-adv-x="218" d="M79 71l71 9l-104 -260h-57z" />
<glyph unicode="-" horiz-adv-x="207" d="M0 220v53h207v-53h-207z" />
<glyph unicode="." horiz-adv-x="238" d="M67 49l52 60l53 -60l-53 -59z" />
<glyph unicode="/" horiz-adv-x="495" d="M-25 -174l416 857l45 -16l-415 -857z" />
<glyph unicode="0" d="M83 116q-40 84 -40 219q0 156 60.5 250.5t160.5 94.5q97 0 155 -94.5t58 -251.5q0 -133 -54 -233q-62 -114 -167 -114q-111 0 -173 129zM144 132q20 -41 50 -64.5t62 -23.5q38 0 73 28.5t54 77.5q32 80 32 192q0 124 -43.5 202.5t-111.5 78.5q-35 0 -67 -26t-52 -72 q-15 -33 -25.5 -91t-10.5 -109q0 -110 39 -193z" />
<glyph unicode="1" d="M286 -7v585l-173 -94l-18 41l250 155v-673z" />
<glyph unicode="2" d="M49 0l185 195q106 112 140 166t34 109q0 66 -43 109t-109 43q-59 0 -101 -44.5t-42 -106.5q0 -78 63 -124q33 -25 85 -32l-42 -50q-70 16 -111 61q-57 63 -57 143q0 88 60.5 148.5t147.5 60.5q99 0 158 -67q24 -27 38.5 -67.5t14.5 -79.5q0 -62 -48 -135t-162 -186 l-64 -63l-20 -21h294l-12 -59h-409z" />
<glyph unicode="3" d="M45 113l49 35q48 -104 153 -104q65 0 104.5 38t39.5 100q0 48 -27 84.5t-72 50.5q-25 8 -109 9v52q7 1 14 1l43 2q57 3 95.5 38.5t38.5 86.5q0 50 -35.5 83.5t-87.5 33.5q-45 0 -77 -17.5t-72 -63.5l-41 41q81 97 188 97q82 0 134.5 -48t52.5 -122q0 -53 -24 -89t-77 -62 q46 -25 68 -47q50 -52 50 -128q0 -86 -57.5 -141.5t-148.5 -55.5q-65 0 -119 33.5t-83 92.5z" />
<glyph unicode="4" d="M31 172l341 513v-454h117l-13 -59h-104v-181l-59 -9v190h-282zM126 231h187v281z" />
<glyph unicode="5" d="M37 91l42 41q71 -88 158 -88q69 0 115 46.5t46 116.5q0 72 -46 117.5t-118 45.5q-33 0 -57 -8.5t-66 -33.5l-10 -6v345h319l-19 -59h-242l1 -198q41 17 87 17q89 0 150.5 -62.5t61.5 -153.5q0 -95 -64 -159.5t-158 -64.5q-125 0 -200 104z" />
<glyph unicode="6" d="M322 702l47 -32q-163 -147 -213 -252q38 23 61.5 31t54.5 8q88 0 147 -66.5t59 -164.5q0 -99 -63.5 -169t-154.5 -70q-90 0 -152 69t-62 169q0 152 140 335q61 80 136 142zM108 223q0 -74 44 -126.5t107 -52.5q66 0 111.5 51.5t45.5 126.5q0 73 -45 125.5t-107 52.5 q-64 0 -110 -52.5t-46 -124.5z" />
<glyph unicode="7" d="M149 -7l232 615h-337l14 59h405l-245 -660z" />
<glyph unicode="8" d="M48 181q0 66 40 113q27 32 82 55q-106 52 -106 154q0 74 57 125.5t139 51.5q83 0 137.5 -50t54.5 -126q0 -112 -105 -155q125 -49 125 -174q0 -82 -60.5 -135t-152.5 -53q-93 0 -152 54t-59 140zM257 372q55 0 94 37t39 89q0 53 -37.5 89t-94.5 36t-94.5 -35.5 t-37.5 -89.5q0 -53 38 -89.5t93 -36.5zM110 183q0 -61 42.5 -100t109.5 -39q64 0 106.5 38t42.5 96q0 64 -42.5 103t-111.5 39q-63 0 -105 -39t-42 -98z" />
<glyph unicode="9" d="M151 15q53 41 119.5 116t77.5 107q-57 -27 -102 -27q-82 0 -142.5 69t-60.5 163q0 99 62.5 168t151.5 69q92 0 153.5 -68t61.5 -169q0 -152 -141 -330q-62 -79 -128 -139zM259 268q62 0 106.5 51.5t44.5 123.5q0 73 -46 126.5t-109 53.5q-61 0 -105.5 -53t-44.5 -126 q0 -72 45.5 -124t108.5 -52z" />
<glyph unicode=":" horiz-adv-x="238" d="M119 237l-52 58l52 60l53 -60zM67 49l52 60l53 -60l-53 -59z" />
<glyph unicode=";" horiz-adv-x="258" d="M149 236l-53 60l53 59l52 -59zM119 71l70 9l-100 -260h-60z" />
<glyph unicode="&#x3c;" horiz-adv-x="500" d="M33 305v49l433 197v-56l-374 -166l374 -167v-55z" />
<glyph unicode="=" d="M50 390l13 53h407l-13 -53h-407zM50 224l13 53h407l-13 -53h-407z" />
<glyph unicode="&#x3e;" horiz-adv-x="500" d="M33 107v56l374 166l-374 167v55l433 -198v-49z" />
<glyph unicode="?" horiz-adv-x="421" d="M180 170v100q0 34 13.5 54t59.5 55q69 52 69 118q0 53 -36 88.5t-89 35.5q-59 0 -95 -41q-17 -18 -38 -66l-51 27q21 63 70.5 99.5t112.5 36.5q80 0 132.5 -51.5t52.5 -129.5q0 -50 -25 -90t-83 -82q-41 -30 -41 -54v-89zM161 49l48 56l47 -56l-47 -58z" />
<glyph unicode="@" horiz-adv-x="785" d="M615 -4l10 -37q-123 -54 -251 -54q-165 0 -257 101q-80 89 -80 217q0 157 116.5 270t279.5 113q132 0 218.5 -80t86.5 -203q0 -95 -55.5 -170.5t-125.5 -75.5q-51 0 -61 45q-3 12 -3 34q-62 -79 -153 -79q-69 0 -110 54q-32 43 -32 95q0 81 63.5 144.5t145.5 63.5 q80 0 119 -79l13 69l44 6l-41 -233q-6 -36 -6 -51q0 -30 27 -30q51 0 92.5 63t41.5 140q0 109 -75 178.5t-192 69.5q-145 0 -248.5 -101t-103.5 -241q0 -109 67 -188q80 -93 231 -93q120 0 239 52zM245 226q0 -44 30 -74.5t73 -30.5q64 0 112.5 49t48.5 114q0 44 -30.5 75 t-74.5 31q-62 0 -110.5 -50t-48.5 -114z" />
<glyph unicode="A" horiz-adv-x="678" d="M0 10l342 677l336 -677l-64 -17l-135 274h-277l-138 -274zM230 327h220l-109 224z" />
<glyph unicode="B" horiz-adv-x="531" d="M87 0v667h145q73 0 107.5 -9t65.5 -35q61 -52 61 -128q0 -94 -94 -148q113 -53 113 -162q0 -51 -24 -92.5t-66 -64.5q-30 -16 -64.5 -22t-100.5 -6h-143zM150 372h89q77 0 114 29q45 35 45 91q0 32 -18 60t-48 41q-31 14 -99 14h-83v-235zM150 60h88q79 0 113 16 q30 14 47.5 42.5t17.5 63.5q0 34 -15.5 63t-42.5 45q-36 22 -120 22h-88v-252z" />
<glyph unicode="C" horiz-adv-x="561" d="M528 101l-12 -81q-62 -37 -136 -37q-139 0 -238.5 103.5t-99.5 249.5q0 144 100 246t240 102q65 0 134 -31l12 -77q-72 43 -145 43q-116 0 -194.5 -81.5t-78.5 -202.5q0 -120 78.5 -203.5t191.5 -83.5q39 0 70.5 11t77.5 42z" />
<glyph unicode="D" horiz-adv-x="630" d="M87 0v667h129q91 0 150.5 -20t112.5 -69q109 -100 109 -243q0 -167 -136 -268q-49 -37 -102.5 -52t-133.5 -15h-129zM150 60h61q87 0 131 16q81 29 129.5 99t48.5 156q0 60 -27.5 120t-72.5 98q-52 43 -116 54q-24 4 -89 4h-65v-547z" />
<glyph unicode="E" horiz-adv-x="530" d="M87 0v667h378l16 -60h-331v-240h283v-60h-283v-247h347l-16 -60h-394z" />
<glyph unicode="F" horiz-adv-x="436" d="M87 -7v674h309l13 -60h-259v-240h202v-60h-202v-300z" />
<glyph unicode="G" horiz-adv-x="698" d="M620 596l-37 -50q-54 41 -96.5 57t-94.5 16q-116 0 -199 -83.5t-83 -201.5q0 -53 23 -109.5t61 -94.5q37 -38 91 -60t110 -22q46 0 82.5 13t91.5 49v190h-219l20 60h262v-283q-112 -94 -244 -94q-144 0 -245 102t-101 248t101.5 248.5t246.5 102.5q77 0 149 -33 q34 -16 81 -55z" />
<glyph unicode="H" horiz-adv-x="679" d="M87 -7v667l63 14v-307h380v293l63 14v-667l-63 -14v314h-380v-300z" />
<glyph unicode="I" horiz-adv-x="237" d="M87 -7v667l63 14v-667z" />
<glyph unicode="J" horiz-adv-x="397" d="M17 29l30 56q48 -37 90 -37q49 0 81 29q21 20 28.5 46.5t7.5 79.5v457l63 14v-471q0 -63 -8 -97t-30 -61q-50 -62 -141 -62q-68 0 -121 46z" />
<glyph unicode="K" horiz-adv-x="532" d="M87 -7v667l63 14v-314l280 314l68 -14l-265 -300l292 -340l-66 -27l-309 355v-341z" />
<glyph unicode="L" horiz-adv-x="420" d="M87 0v660l63 14v-614h263l-23 -60h-303z" />
<glyph unicode="M" horiz-adv-x="811" d="M37 7l137 680l232 -549l233 549l136 -680l-65 -14l-93 494l-211 -500l-211 500l-95 -494z" />
<glyph unicode="N" horiz-adv-x="683" d="M87 -7v694l451 -534v507l59 14v-681l-447 527v-513z" />
<glyph unicode="O" horiz-adv-x="787" d="M42 330q0 148 102 251t248 103q150 0 251.5 -101.5t101.5 -250.5q0 -142 -104.5 -245.5t-248.5 -103.5q-145 0 -247.5 102t-102.5 245zM110 332q0 -116 83.5 -200t200.5 -84q58 0 113 24t93 66q34 37 55.5 91.5t21.5 104.5q0 55 -21.5 109t-58.5 91q-40 39 -96 62 t-112 23q-115 0 -197 -84.5t-82 -202.5z" />
<glyph unicode="P" horiz-adv-x="480" d="M87 -7v674q81 3 99 3q92 0 155 -33q51 -27 81.5 -79.5t30.5 -112.5q0 -56 -27 -105.5t-76 -80.5q-58 -38 -144 -38q-23 0 -56 1v-215zM150 285q20 -2 40 -2q82 0 128 33q67 47 67 129q0 83 -64 128q-50 35 -135 35q-21 0 -36 -1v-322z" />
<glyph unicode="Q" horiz-adv-x="788" d="M730 -63l-132 119q-95 -73 -203 -73q-146 0 -249.5 103.5t-103.5 249.5q0 145 103 246.5t249 101.5q148 0 250 -100.5t102 -245.5q0 -130 -98 -237l131 -121zM510 223l89 -80q79 76 79 197q0 114 -83.5 196.5t-199.5 82.5q-50 0 -101 -19t-88 -51q-45 -38 -70.5 -94.5 t-25.5 -119.5q0 -118 83 -202.5t198 -84.5q94 0 159 53l-88 81z" />
<glyph unicode="R" horiz-adv-x="511" d="M87 -7v674q26 0 30 1q38 1 71 1q104 0 160 -38q82 -57 82 -162q0 -83 -54 -139q-38 -39 -108 -54l210 -256l-59 -29l-269 326v-310zM150 327q11 0 25.5 -0.5t22.5 -1t12 -0.5q75 0 115 41q37 37 37 99q0 77 -58 119q-32 23 -103 23q-1 0 -51 -2v-278z" />
<glyph unicode="S" horiz-adv-x="500" d="M33 100l51 42q36 -51 71.5 -71.5t87.5 -20.5q64 0 104.5 34.5t40.5 88.5q0 51 -36 87q-25 24 -85 40l-61 17q-159 44 -159 177q0 80 59 134t146 54q105 0 183 -81l-46 -49q-62 66 -137 66q-59 0 -98 -33.5t-39 -85.5q0 -44 27 -72.5t87 -44.5l58 -16q97 -27 137 -85 q32 -46 32 -102q0 -90 -74 -150q-56 -44 -138 -44q-67 0 -117 27t-94 88z" />
<glyph unicode="T" horiz-adv-x="462" d="M199 -7v614h-194l16 60h421v-60h-180v-600z" />
<glyph unicode="U" horiz-adv-x="644" d="M564 674v-436q0 -62 -8 -91q-21 -73 -84 -114t-154 -41q-137 0 -200 90q-30 42 -36 94q-2 11 -2 62v422l63 14v-436q0 -53 9 -81t35 -54q46 -46 133 -46q106 0 154 69q27 41 27 112v422z" />
<glyph unicode="V" horiz-adv-x="623" d="M306 -26l-306 681l63 19l243 -548l255 548l62 -19z" />
<glyph unicode="W" horiz-adv-x="879" d="M304 -26l-297 686l67 14l230 -545l101 234l-127 297l61 14l100 -231l101 231l54 -14l-121 -292l105 -239l230 545l64 -14l-294 -686l-139 316z" />
<glyph unicode="X" horiz-adv-x="583" d="M7 13l243 343l-209 291l52 33l195 -269l193 269l55 -33l-209 -291l249 -343l-57 -26l-231 314l-221 -314z" />
<glyph unicode="Y" horiz-adv-x="523" d="M114 7l129 240l-243 413l66 17l213 -361l188 361l63 -17l-349 -673z" />
<glyph unicode="Z" horiz-adv-x="536" d="M13 0l384 607h-363l15 60h459l-385 -607h399l-14 -60h-495z" />
<glyph unicode="[" horiz-adv-x="341" d="M138 -126h106v-47h-161v840h161v-47h-106v-746z" />
<glyph unicode="\" horiz-adv-x="495" d="M474 -190l-414 857l45 16l416 -857z" />
<glyph unicode="]" horiz-adv-x="341" d="M97 -126h106v746h-106v47h161v-840h-161v47z" />
<glyph unicode="^" horiz-adv-x="500" d="M32 374l182 294h73l182 -294h-62l-158 251l-156 -251h-61z" />
<glyph unicode="_" horiz-adv-x="500" d="M0 -74h500v-49h-500v49z" />
<glyph unicode="`" horiz-adv-x="500" d="M296 547l-187 95l25 51l183 -105z" />
<glyph unicode="a" horiz-adv-x="481" d="M349 -6v60q-52 -68 -136 -68q-74 0 -123.5 49.5t-49.5 123.5t50.5 124.5t124.5 50.5q86 0 132 -60v14v7q1 9 1 32q0 57 -21 78q-29 32 -90 32q-52 0 -136 -32q-3 0 -16 -5l23 65q67 26 133 26q81 0 125 -41q24 -23 31 -50t7 -97v-297zM97 160q0 -53 34.5 -86.5 t88.5 -33.5q55 0 93 34t38 84q0 52 -37 88t-91 36q-55 0 -90.5 -34.5t-35.5 -87.5z" />
<glyph unicode="b" horiz-adv-x="596" d="M118 680v-289q84 103 193 103q102 0 174 -73.5t72 -177.5q0 -106 -73.5 -181t-176.5 -75q-64 0 -119 30t-86 81q-31 50 -37 110q-2 15 -2 88v371zM116 241q0 -82 56 -139.5t136 -57.5q77 0 133 59t56 141q0 79 -55.5 136t-131.5 57q-80 0 -137 -57.5t-57 -138.5z" />
<glyph unicode="c" horiz-adv-x="483" d="M427 91l36 -44q-88 -60 -170 -60q-104 0 -179 74.5t-75 177.5q0 105 75.5 180t181.5 75q88 0 167 -58l-36 -44q-69 45 -135 45q-81 0 -137 -57.5t-56 -140.5t55 -139t136 -56q68 0 137 47z" />
<glyph unicode="d" horiz-adv-x="600" d="M469 -7v96q-35 -43 -61 -62q-58 -40 -131 -40q-97 0 -167.5 74t-70.5 176q0 108 71.5 182.5t174.5 74.5q57 0 100 -23t84 -75v276l55 8v-673zM99 238q0 -83 54.5 -139t134.5 -56q78 0 132 57t54 139q0 87 -52 142.5t-133 55.5t-135.5 -57t-54.5 -142z" />
<glyph unicode="e" horiz-adv-x="504" d="M117 154q21 -50 67.5 -80t103.5 -30q84 0 181 83v-73q-89 -67 -184 -67q-101 0 -173.5 74.5t-72.5 179.5q0 107 71 180t176 73q133 0 196 -114zM100 208l301 186q-44 43 -116 43q-81 0 -135 -57t-54 -134q0 -4 4 -38z" />
<glyph unicode="f" horiz-adv-x="296" d="M76 -7v434h-68l18 53h50q-1 116 43 165.5t147 45.5l17 -55q-6 0 -13.5 0.5t-12 1t-7.5 0.5q-120 0 -120 -128q0 -17 1 -30h143v-53h-143v-420z" />
<glyph unicode="g" horiz-adv-x="500" d="M55 -38q69 -95 179 -95q67 0 110.5 37t43.5 94q0 58 -46 95.5t-117 37.5q-60 0 -122 -31l25 66q-92 50 -92 146q0 76 56.5 125t144.5 49q5 0 18 -0.5t21 -0.5h29q83 0 157 22l-20 -63q-8 0 -19 -1t-16 -1q-9 0 -39 2q75 -56 75 -136q0 -105 -106 -150q43 -21 68 -47 q43 -48 43 -114q0 -80 -61.5 -133.5t-154.5 -53.5q-71 0 -129.5 31t-94.5 89zM238 185q63 0 104 33.5t41 85.5q0 56 -39.5 91t-102.5 35q-65 0 -105 -33.5t-40 -88.5q0 -54 40 -88.5t102 -34.5z" />
<glyph unicode="h" horiz-adv-x="527" d="M77 -7v674l55 13v-262q65 76 148 76q76 0 126 -50q29 -29 36.5 -58.5t7.5 -114.5v-264l-55 -14v280q0 66 -5.5 89t-24.5 42q-35 33 -94 33q-72 0 -111 -53q-28 -41 -28 -127v-250z" />
<glyph unicode="i" horiz-adv-x="209" d="M105 580l-44 53l44 55l43 -55zM77 -7v481l55 13v-480z" />
<glyph unicode="j" horiz-adv-x="209" d="M101 580l-44 54l44 50l42 -50zM77 7v467l55 13v-480q0 -57 -9 -88.5t-32 -55.5q-44 -47 -120 -47q-12 0 -22 1l-19 59l9 -1q14 -2 34 -2q29 0 54 13.5t36 36.5q14 27 14 84z" />
<glyph unicode="k" horiz-adv-x="442" d="M77 -7v674l55 13v-442l221 249l47 -28l-195 -221l217 -217l-45 -34l-245 242v-222z" />
<glyph unicode="l" horiz-adv-x="209" d="M77 -7v674l55 13v-673z" />
<glyph unicode="m" horiz-adv-x="773" d="M77 -7v481l55 13v-80q16 40 52.5 63.5t83.5 23.5q44 0 73 -20t55 -67q58 87 150 87q72 0 117 -50q34 -38 34 -114v-323l-55 -14l-1 324q0 37 -6 56.5t-22 35.5q-28 28 -74 28q-56 0 -92 -36q-37 -38 -37 -129v-265l-55 -14v279q0 87 -10 110q-22 55 -88 55q-58 0 -92 -40 q-34 -38 -34 -125v-265z" />
<glyph unicode="n" horiz-adv-x="522" d="M77 -7v481l55 13v-80q51 87 153 87q71 0 117 -46q24 -24 33.5 -57t9.5 -93v-291l-55 -14v305q0 139 -113 139q-64 0 -104.5 -43.5t-40.5 -113.5v-273z" />
<glyph unicode="o" horiz-adv-x="571" d="M39 244q0 104 72.5 177t175.5 73q104 0 174.5 -72t70.5 -179q0 -105 -72 -180.5t-172 -75.5q-102 0 -175.5 75.5t-73.5 181.5zM156 101q25 -25 61.5 -41t69.5 -16q76 0 130.5 58.5t54.5 139.5t-54.5 138t-131.5 57q-79 0 -133 -56.5t-54 -138.5q0 -84 57 -141z" />
<glyph unicode="p" horiz-adv-x="609" d="M132 87v-261l-55 -13v661l55 13v-105q28 50 72 77q56 35 122 35q101 0 172.5 -74.5t71.5 -179.5q0 -106 -72.5 -179.5t-176.5 -73.5q-56 0 -100.5 23.5t-88.5 76.5zM130 239q0 -83 54.5 -139t134.5 -56q77 0 134 58.5t57 138.5q0 84 -54 140t-134 56q-84 0 -138 -56 t-54 -142z" />
<glyph unicode="q" horiz-adv-x="615" d="M484 -187v285q-77 -111 -203 -111q-98 0 -169 77q-73 77 -73 177q0 104 72 178.5t174 74.5q80 0 144 -51q31 -24 55 -66v103l55 7v-661zM99 238q0 -80 55.5 -137t133.5 -57q80 0 137 56.5t57 135.5q0 97 -70 155q-54 46 -121 46q-80 0 -136 -58.5t-56 -140.5z" />
<glyph unicode="r" horiz-adv-x="327" d="M77 -7v481l55 13v-105q17 32 31.5 48.5t37.5 30.5q46 28 93 28q3 0 23 -2l-24 -56h-15q-35 0 -67.5 -23.5t-52.5 -63.5q-26 -51 -26 -143v-194z" />
<glyph unicode="s" horiz-adv-x="408" d="M32 63l43 41q48 -60 126 -60q47 0 77 24.5t30 61.5q0 32 -24 58q-15 16 -66 28l-49 11q-60 14 -92 47.5t-32 82.5q0 60 47.5 100.5t117.5 40.5q85 0 151 -57l-34 -43q-62 43 -119 43q-45 0 -74 -23t-29 -59q0 -61 87 -77l39 -7q64 -12 100.5 -49.5t36.5 -91.5 q0 -64 -48 -105.5t-122 -41.5q-106 0 -166 76z" />
<glyph unicode="t" horiz-adv-x="304" d="M270 55v-55q-29 -5 -57 -5q-72 0 -109 46q-28 35 -28 107v279h-68l16 53h52v113l55 34v-147h139v-53h-139v-279q0 -50 22.5 -73t71.5 -23q15 0 45 3z" />
<glyph unicode="u" horiz-adv-x="517" d="M385 -13v81q-56 -81 -144 -81q-70 0 -115 45q-49 49 -49 147v295l55 13v-308q0 -62 30 -98.5t81 -36.5q63 0 107 51q20 24 27.5 49.5t7.5 70.5v259l55 13v-487z" />
<glyph unicode="v" horiz-adv-x="477" d="M237 -26l-240 506l60 14l180 -387l184 387l60 -14z" />
<glyph unicode="w" horiz-adv-x="779" d="M213 -20l-216 494l56 13l160 -371l174 371l177 -371l163 371l55 -13l-218 -494l-177 380z" />
<glyph unicode="x" horiz-adv-x="434" d="M7 20l168 223l-168 217l51 27l155 -200l156 200l50 -27l-167 -217l176 -223l-59 -30l-156 208l-155 -208z" />
<glyph unicode="y" horiz-adv-x="473" d="M88 -176l124 246l-219 397l54 20l197 -354l174 354l54 -20l-328 -661z" />
<glyph unicode="z" horiz-adv-x="477" d="M10 0l339 427h-300l14 53h400l-343 -427h343l-16 -53h-437z" />
<glyph unicode="{" horiz-adv-x="500" d="M211 -38v168q0 44 -13 65t-45 31v43q31 9 44.5 30t13.5 62v184q0 84 45 114q32 21 104 21v-46q-55 -1 -74.5 -20.5t-19.5 -72.5v-182q0 -48 -13.5 -72t-48.5 -41q34 -17 48 -42.5t14 -72.5v-175q0 -56 19.5 -76t74.5 -21v-46h-16q-73 0 -103 34t-30 115z" />
<glyph unicode="|" horiz-adv-x="500" d="M223 -167v834h55v-834h-55z" />
<glyph unicode="}" horiz-adv-x="500" d="M147 -141q56 2 75.5 21.5t19.5 71.5v183q0 47 13.5 71t48.5 41q-34 17 -48 43t-14 73v174q0 56 -19.5 76t-75.5 21v46q47 0 71 -5.5t41 -20.5q38 -34 38 -123v-168q0 -43 12.5 -64.5t44.5 -31.5v-42q-31 -10 -44 -31t-13 -62v-183q0 -71 -31.5 -103.5t-101.5 -32.5h-17 v46z" />
<glyph unicode="~" horiz-adv-x="667" d="M128 590l-34 22q31 59 61 83t72 24q36 0 114 -36q70 -34 100 -34t51 16t46 56l35 -21q-54 -105 -138 -105q-22 0 -46 8.5t-92 40.5q-46 21 -74 21t-50 -17.5t-45 -57.5z" />
<glyph unicode="&#xa1;" horiz-adv-x="264" d="M132 394l-52 61l52 57l52 -57zM104 -187v521l55 7l7 -514z" />
<glyph unicode="&#xa2;" d="M266 12v163q-68 12 -108.5 59.5t-40.5 116.5t39 115.5t110 62.5v117l41 8v-125q64 -4 103 -39l-28 -40q-40 28 -75 28v-253q42 4 75 26l28 -37q-52 -35 -103 -39v-157zM266 226v252q-42 -9 -68.5 -44t-26.5 -82q0 -49 27 -84.5t68 -41.5z" />
<glyph unicode="&#xa3;" d="M11 0v60h86v254h-86l23 53h63v64q0 68 5.5 101.5t21.5 60.5q25 41 65.5 64t88.5 23q72 0 121.5 -47.5t58.5 -124.5l-56 -12q-20 131 -122 131q-59 0 -93 -45q-16 -22 -21.5 -45t-5.5 -71v-99h150v-53h-150v-254h120q105 0 142 49q14 19 19 39t8 72l60 -16v-9v-4 q0 -83 -54 -139q-27 -28 -67.5 -40t-107.5 -12h-269z" />
<glyph unicode="&#xa4;" d="M104 140l-37 38l44 43q-34 48 -34 112t34 112l-44 44l37 38l44 -43q49 38 112 38q62 0 113 -38l43 43l38 -38l-44 -43q34 -50 34 -113q0 -64 -34 -112l44 -44l-38 -37l-43 43q-51 -38 -113 -38q-60 0 -113 38zM260 202q49 0 86.5 39t37.5 91q0 54 -37 93.5t-87 39.5 q-49 0 -86 -39t-37 -92t36.5 -92.5t86.5 -39.5z" />
<glyph unicode="&#xa5;" d="M229 -7v239h-164v48h162l-59 119h-120v48h95l-108 215l58 15l167 -336l166 336l58 -15l-109 -215h96v-48h-121l-60 -119h164v-48h-166v-225z" />
<glyph unicode="&#xa6;" horiz-adv-x="500" d="M223 338v329h55v-329h-55zM223 153h55v-320h-55v320z" />
<glyph unicode="&#xa7;" d="M101 -32q78 -68 161 -68q49 0 77 22t28 61q0 37 -23 61.5t-85 55.5q-94 46 -132 77q-49 40 -49 104q0 43 24 80t65 58q-79 42 -79 116q0 64 51 106.5t127 42.5q39 0 85 -16t74 -39l-36 -49q-67 44 -126 44q-48 0 -79.5 -24.5t-31.5 -62.5q0 -36 39 -62q17 -12 128 -67 q70 -35 94 -65q31 -39 31 -92q0 -38 -25 -78.5t-60 -57.5q72 -49 72 -131q0 -67 -44.5 -105.5t-120.5 -38.5q-54 0 -107 21t-87 55zM218 190q17 -10 86 -46q45 32 60.5 54t15.5 54q0 36 -31.5 63t-126.5 73q-26 -16 -38 -26q-42 -39 -42 -83q0 -23 17 -43t59 -46z" />
<glyph unicode="&#xa8;" horiz-adv-x="500" d="M334 560l-45 56l45 58l47 -58zM165 560l-45 56l45 56l46 -56z" />
<glyph unicode="&#xa9;" horiz-adv-x="807" d="M53 334q0 144 102.5 247t246.5 103q148 0 249.5 -103t101.5 -252q0 -142 -103.5 -244t-246.5 -102q-145 0 -247.5 103t-102.5 248zM96 334q0 -127 90 -217.5t217 -90.5q125 0 216 90t91 214q0 130 -89.5 220.5t-218.5 90.5q-126 0 -216 -90t-90 -217zM532 197l-9 -60 q-41 -24 -93 -24q-92 0 -157.5 65.5t-65.5 156.5t66 155t160 64q21 0 30.5 -0.5t24 -5t33.5 -13.5l2 -1l9 -57q-52 30 -99 30q-74 0 -124.5 -49.5t-50.5 -122.5t50.5 -124t122.5 -51q26 0 46 7t55 30z" />
<glyph unicode="&#xaa;" horiz-adv-x="323" d="M225 263v29q-34 -33 -82 -33q-49 0 -81 30t-32 75t33 75.5t82 30.5q45 0 79 -28q1 9 1 20q0 29 -8 40q-16 22 -58 22q-31 0 -85 -18h-2q-2 -1 -4 -1.5t-5 -1.5l-6 -2l17 46q44 16 87 16q51 0 82 -25q16 -14 20.5 -30t4.5 -59v-178zM147 297q34 0 56.5 19t22.5 48 t-22.5 49t-54.5 20t-53.5 -19.5t-21.5 -48.5q0 -30 20.5 -49t52.5 -19z" />
<glyph unicode="&#xab;" horiz-adv-x="417" d="M185 247l143 139l33 -32l-102 -107l102 -106l-33 -33zM185 108l-138 139l138 139l33 -32l-105 -107l105 -106z" />
<glyph unicode="&#xac;" horiz-adv-x="500" d="M33 217v50h433v-267h-55v217h-378z" />
<glyph unicode="&#xad;" horiz-adv-x="207" d="M0 220v53h207v-53h-207z" />
<glyph unicode="&#xae;" horiz-adv-x="807" d="M53 334q0 144 102.5 247t246.5 103q148 0 249.5 -103t101.5 -252q0 -142 -103.5 -244t-246.5 -102q-145 0 -247.5 103t-102.5 248zM96 334q0 -127 90 -217.5t217 -90.5q125 0 216 90t91 214q0 130 -89.5 220.5t-218.5 90.5q-126 0 -216 -90t-90 -217zM305 130v405h23 q10 0 19.5 0.5t14.5 0.5h6q73 0 108 -23q53 -35 53 -98q0 -45 -26 -75.5t-73 -40.5l131 -150l-44 -20l-164 186v-176zM353 334q16 -1 33 -1q44 0 68 21t24 58q0 43 -34 67q-20 14 -63 14q-14 0 -28 -2v-157z" />
<glyph unicode="&#xaf;" horiz-adv-x="500" d="M120 584v53h260v-53h-260z" />
<glyph unicode="&#xb0;" horiz-adv-x="373" d="M186 417q-55 0 -94 39.5t-39 94.5q0 54 39 93.5t94 39.5t94 -39.5t39 -95.5q0 -53 -39.5 -92.5t-93.5 -39.5zM187 460q34 0 59.5 26.5t25.5 62.5q0 38 -25 65t-60 27t-61 -27t-26 -63q0 -37 26 -64t61 -27z" />
<glyph unicode="&#xb1;" horiz-adv-x="500" d="M223 159v184h-198v51h198v182h55v-182h198v-51h-200v-184h-53zM25 63v51h451v-51h-451z" />
<glyph unicode="&#xb2;" horiz-adv-x="332" d="M30 267l117 121q63 65 83.5 96t20.5 62q0 37 -25 61.5t-63 24.5q-34 0 -58 -24.5t-24 -59.5q0 -45 36 -71q19 -14 57 -18l-31 -37q-46 10 -71 37q-36 39 -36 87q0 53 37.5 90t91.5 37q57 0 94 -37t37 -93q0 -37 -29 -80.5t-98 -110.5l-44 -43h172l-9 -42h-258z" />
<glyph unicode="&#xb3;" horiz-adv-x="332" d="M72 584l-31 29q52 62 119 62q50 0 83 -29.5t33 -74.5q0 -60 -56 -89q66 -37 66 -103q0 -52 -35.5 -86t-91.5 -34q-86 0 -127 79l36 26q30 -64 90 -64q37 0 60 21t23 56q0 32 -20 54t-53 26q-14 2 -52 2v38q51 3 54 4q27 5 44 24t17 44q0 28 -20 46.5t-50 18.5 q-27 0 -45.5 -10.5t-43.5 -39.5z" />
<glyph unicode="&#xb4;" horiz-adv-x="500" d="M203 547l-20 41l182 105l26 -51z" />
<glyph unicode="&#xb5;" horiz-adv-x="517" d="M130 28l5 -201l-58 -14v661l55 13v-308q0 -62 30 -98.5t81 -36.5q63 0 107 51q20 24 27.5 49.5t7.5 70.5v259l55 13v-487l-55 -13v81q-56 -81 -144 -81q-64 0 -111 41z" />
<glyph unicode="&#xb6;" d="M237 -172v480h-16q-83 0 -136 50t-53 128q0 48 23 90t62 64q48 27 125 27h193v-825l-55 -14v792h-87v-778z" />
<glyph unicode="&#xb7;" horiz-adv-x="238" d="M119 187l-52 59l52 60l53 -60z" />
<glyph unicode="&#xb8;" horiz-adv-x="500" d="M197 -89l34 89h44l-21 -54q15 3 21 3q27 0 45.5 -18.5t18.5 -46.5q0 -35 -27 -59.5t-67 -24.5q-42 0 -81 30l33 32q26 -19 50 -19q19 0 31 10t12 26q0 13 -8.5 21t-21.5 8q-11 0 -26 -8z" />
<glyph unicode="&#xb9;" horiz-adv-x="332" d="M178 263v342l-102 -54l-14 31l159 97l1 -406z" />
<glyph unicode="&#xba;" horiz-adv-x="379" d="M191 259q-66 0 -113.5 45.5t-47.5 108.5q0 62 47 106.5t114 44.5t112.5 -43.5t45.5 -107.5q0 -63 -46.5 -108.5t-111.5 -45.5zM190 299q46 0 79.5 33.5t33.5 79.5q0 47 -33 79.5t-80 32.5q-48 0 -81 -32.5t-33 -79.5q0 -46 34 -79.5t80 -33.5z" />
<glyph unicode="&#xbb;" horiz-adv-x="417" d="M200 139l105 107l-105 106l33 34l138 -140l-138 -138zM90 108l-33 31l102 107l-102 106l33 34l143 -140z" />
<glyph unicode="&#xbc;" horiz-adv-x="820" d="M168 -1l442 688l43 -19l-443 -688zM182 262v342l-105 -54l-15 31l164 97l1 -406zM502 101l222 318v-275h73l-9 -43h-64v-106l-44 -6v112h-178zM576 144h104v148z" />
<glyph unicode="&#xbd;" horiz-adv-x="820" d="M168 -1l442 688l43 -19l-443 -688zM182 262v342l-105 -54l-15 31l164 97l1 -406zM510 0l122 122q66 66 86.5 96.5t20.5 61.5q0 38 -25.5 62t-65.5 24q-35 0 -60 -25t-25 -60q0 -44 37 -70q21 -15 59 -19l-32 -36q-48 11 -73 37q-37 38 -37 87q0 53 38.5 90t94.5 37 q58 0 96.5 -37t38.5 -93q0 -38 -30 -81.5t-102 -110.5l-45 -42h178l-9 -43h-267z" />
<glyph unicode="&#xbe;" horiz-adv-x="820" d="M168 -1l442 688l43 -19l-443 -688zM72 584l-31 29q54 62 122 62q52 0 86 -29.5t34 -74.5q0 -61 -58 -89q68 -38 68 -103q0 -52 -37 -86t-94 -34q-88 0 -131 79l38 26q30 -64 92 -64q39 0 62.5 21t23.5 56q0 51 -48 73q-8 4 -68 8l-13 1v38q6 1 13 1l26 1q35 2 57.5 21.5 t22.5 48.5q0 28 -21 46.5t-52 18.5q-27 0 -47 -10.5t-45 -39.5zM502 101l222 318v-275h73l-9 -43h-64v-106l-44 -6v112h-178zM576 144h104v148z" />
<glyph unicode="&#xbf;" horiz-adv-x="421" d="M212 398l-47 57l47 57l48 -57zM357 -10l51 -28q-22 -63 -71 -99t-112 -36q-80 0 -132.5 51.5t-52.5 129.5q0 50 25 90t83 82q41 30 41 54v88l52 11v-99q0 -35 -13.5 -55t-59.5 -55q-38 -29 -53.5 -55.5t-15.5 -61.5q0 -53 36 -88.5t89 -35.5q59 0 95 41q17 18 38 66z" />
<glyph unicode="&#xc0;" horiz-adv-x="678" d="M370 723l-201 84l25 56l196 -93zM0 10l342 677l336 -677l-64 -17l-135 274h-277l-138 -274zM230 327h220l-109 224z" />
<glyph unicode="&#xc1;" horiz-adv-x="678" d="M333 723l-20 47l196 93l25 -56zM0 10l342 677l336 -677l-64 -17l-135 274h-277l-138 -274zM230 327h220l-109 224z" />
<glyph unicode="&#xc2;" horiz-adv-x="678" d="M243 727l-60 19l163 114l164 -114l-60 -19l-104 63zM0 10l342 677l336 -677l-64 -17l-135 274h-277l-138 -274zM230 327h220l-109 224z" />
<glyph unicode="&#xc3;" horiz-adv-x="678" d="M226 749l-45 29q47 59 109 59q28 0 69 -19q34 -16 54 -16q32 0 58 33l46 -30q-48 -59 -108 -59q-27 0 -63 16q-46 20 -63 20q-28 0 -57 -33zM0 10l342 677l336 -677l-64 -17l-135 274h-277l-138 -274zM230 327h220l-109 224z" />
<glyph unicode="&#xc4;" horiz-adv-x="678" d="M432 731l-51 59l51 60l51 -60zM254 731l-51 59l51 60l51 -60zM0 10l342 677l336 -677l-64 -17l-135 274h-277l-138 -274zM230 327h220l-109 224z" />
<glyph unicode="&#xc5;" horiz-adv-x="678" d="M342 720q-32 0 -54.5 23t-22.5 55t22.5 54.5t54.5 22.5q33 0 55.5 -23t22.5 -56q0 -31 -23 -53.5t-55 -22.5zM343 760q15 0 26 11t11 26q0 16 -10.5 27t-26.5 11q-15 0 -26.5 -11t-11.5 -26q0 -16 11 -27t27 -11zM0 10l342 677l336 -677l-64 -17l-135 274h-277l-138 -274 zM230 327h220l-109 224z" />
<glyph unicode="&#xc6;" horiz-adv-x="892" d="M-27 13l461 654h389l18 -60h-311v-240h262v-60h-262v-248h328l-18 -59h-373v307h-209l-222 -317zM300 367h167v240z" />
<glyph unicode="&#xc7;" horiz-adv-x="561" d="M289 -93l30 82q-81 17 -136 60q-65 49 -103 126.5t-38 160.5q0 144 100 246t240 102q65 0 134 -31l12 -77q-72 43 -145 43q-116 0 -194.5 -81.5t-78.5 -202.5q0 -120 78.5 -203.5t191.5 -83.5q39 0 70.5 11t77.5 42l-12 -81q-62 -37 -136 -37q-10 0 -18 1l-15 -41 q13 4 22 4q29 0 47.5 -20t18.5 -52q0 -36 -28 -61t-68 -25q-43 0 -84 31l34 33q25 -20 52 -20q20 0 32 10.5t12 27.5q0 15 -9 24t-24 9q-12 0 -26 -9z" />
<glyph unicode="&#xc8;" horiz-adv-x="530" d="M330 723l-201 84l25 56l196 -93zM87 0v667h378l16 -60h-331v-240h283v-60h-283v-247h347l-16 -60h-394z" />
<glyph unicode="&#xc9;" horiz-adv-x="530" d="M255 723l-20 47l196 93l25 -56zM87 0v667h378l16 -60h-331v-240h283v-60h-283v-247h347l-16 -60h-394z" />
<glyph unicode="&#xca;" horiz-adv-x="530" d="M185 727l-60 19l163 114l164 -114l-60 -19l-104 63zM87 0v667h378l16 -60h-331v-240h283v-60h-283v-247h347l-16 -60h-394z" />
<glyph unicode="&#xcb;" horiz-adv-x="530" d="M378 731l-51 59l51 60l51 -60zM200 731l-51 59l51 60l51 -60zM87 0v667h378l16 -60h-331v-240h283v-60h-283v-247h347l-16 -60h-394z" />
<glyph unicode="&#xcc;" horiz-adv-x="237" d="M139 723l-167 84l25 56l163 -93zM87 -7v667l63 14v-667z" />
<glyph unicode="&#xcd;" horiz-adv-x="237" d="M100 723l-20 47l162 93l26 -56zM87 -7v667l63 14v-667z" />
<glyph unicode="&#xce;" horiz-adv-x="237" d="M42 727l-57 19l137 114l136 -114l-56 -19l-80 63zM87 -7v667l63 14v-667z" />
<glyph unicode="&#xcf;" horiz-adv-x="237" d="M191 731l-49 59l49 60l50 -60zM51 731l-49 59l49 60l50 -60zM87 -7v667l63 14v-667z" />
<glyph unicode="&#xd0;" horiz-adv-x="630" d="M87 0v307h-80l13 60h67v300h130q91 0 150 -20t113 -69q109 -100 109 -243q0 -167 -136 -268q-49 -36 -103 -51.5t-134 -15.5h-129zM144 60h61q87 0 130 16q82 29 130.5 98.5t48.5 155.5q0 61 -27.5 121.5t-72.5 97.5q-50 43 -116 54q-24 4 -89 4h-65v-240h179v-60h-179 v-247z" />
<glyph unicode="&#xd1;" horiz-adv-x="683" d="M236 749l-45 29q47 59 109 59q28 0 69 -19q34 -16 54 -16q32 0 58 33l46 -30q-48 -59 -108 -59q-27 0 -63 16q-46 20 -63 20q-28 0 -57 -33zM87 -7v694l451 -534v507l59 14v-681l-447 527v-513z" />
<glyph unicode="&#xd2;" horiz-adv-x="787" d="M233 807l25 56l196 -93l-20 -47zM42 330q0 148 102 251t248 103q150 0 251.5 -101.5t101.5 -250.5q0 -142 -104.5 -245.5t-248.5 -103.5q-145 0 -247.5 102t-102.5 245zM110 332q0 -116 83.5 -200t200.5 -84q58 0 113 24t93 66q34 37 55.5 91.5t21.5 104.5 q0 55 -21.5 109t-58.5 91q-40 39 -96 62t-112 23q-115 0 -197 -84.5t-82 -202.5z" />
<glyph unicode="&#xd3;" horiz-adv-x="787" d="M380 723l-20 47l196 93l25 -56zM42 330q0 148 102 251t248 103q150 0 251.5 -101.5t101.5 -250.5q0 -142 -104.5 -245.5t-248.5 -103.5q-145 0 -247.5 102t-102.5 245zM110 332q0 -116 83.5 -200t200.5 -84q58 0 113 24t93 66q34 37 55.5 91.5t21.5 104.5q0 55 -21.5 109 t-58.5 91q-40 39 -96 62t-112 23q-115 0 -197 -84.5t-82 -202.5z" />
<glyph unicode="&#xd4;" horiz-adv-x="787" d="M234 746l163 114l164 -114l-60 -19l-104 63l-103 -63zM42 330q0 148 102 251t248 103q150 0 251.5 -101.5t101.5 -250.5q0 -142 -104.5 -245.5t-248.5 -103.5q-145 0 -247.5 102t-102.5 245zM110 332q0 -116 83.5 -200t200.5 -84q58 0 113 24t93 66q34 37 55.5 91.5 t21.5 104.5q0 55 -21.5 109t-58.5 91q-40 39 -96 62t-112 23q-115 0 -197 -84.5t-82 -202.5z" />
<glyph unicode="&#xd5;" horiz-adv-x="787" d="M287 749l-45 29q47 59 109 59q28 0 69 -19q34 -16 54 -16q32 0 58 33l46 -30q-48 -59 -108 -59q-27 0 -63 16q-46 20 -63 20q-28 0 -57 -33zM42 330q0 148 102 251t248 103q150 0 251.5 -101.5t101.5 -250.5q0 -142 -104.5 -245.5t-248.5 -103.5q-145 0 -247.5 102 t-102.5 245zM110 332q0 -116 83.5 -200t200.5 -84q58 0 113 24t93 66q34 37 55.5 91.5t21.5 104.5q0 55 -21.5 109t-58.5 91q-40 39 -96 62t-112 23q-115 0 -197 -84.5t-82 -202.5z" />
<glyph unicode="&#xd6;" horiz-adv-x="787" d="M493 731l-51 59l51 60l51 -60zM315 731l-51 59l51 60l51 -60zM42 330q0 148 102 251t248 103q150 0 251.5 -101.5t101.5 -250.5q0 -142 -104.5 -245.5t-248.5 -103.5q-145 0 -247.5 102t-102.5 245zM110 332q0 -116 83.5 -200t200.5 -84q58 0 113 24t93 66 q34 37 55.5 91.5t21.5 104.5q0 55 -21.5 109t-58.5 91q-40 39 -96 62t-112 23q-115 0 -197 -84.5t-82 -202.5z" />
<glyph unicode="&#xd7;" d="M111 148l-37 37l148 148l-148 148l37 38l149 -148l148 148l37 -38l-148 -148l148 -148l-37 -37l-148 148z" />
<glyph unicode="&#xd8;" horiz-adv-x="787" d="M44 24l82 82q-84 98 -84 225q0 147 102 250t248 103q128 0 231 -83l83 82l37 -42l-80 -80q82 -98 82 -225q0 -146 -103.5 -249.5t-249.5 -103.5q-127 0 -226 83l-86 -83zM174 154l401 399q-90 66 -185 66q-115 0 -197.5 -84.5t-82.5 -201.5q0 -101 64 -179zM213 114 q83 -66 181 -66q58 0 113 24t93 66q35 38 56 92.5t21 106.5q0 96 -62 177z" />
<glyph unicode="&#xd9;" horiz-adv-x="644" d="M361 723l-201 84l25 56l196 -93zM564 674v-436q0 -62 -8 -91q-21 -73 -84 -114t-154 -41q-137 0 -200 90q-30 42 -36 94q-2 11 -2 62v422l63 14v-436q0 -53 9 -81t35 -54q46 -46 133 -46q106 0 154 69q27 41 27 112v422z" />
<glyph unicode="&#xda;" horiz-adv-x="644" d="M303 723l-20 47l196 93l25 -56zM564 674v-436q0 -62 -8 -91q-21 -73 -84 -114t-154 -41q-137 0 -200 90q-30 42 -36 94q-2 11 -2 62v422l63 14v-436q0 -53 9 -81t35 -54q46 -46 133 -46q106 0 154 69q27 41 27 112v422z" />
<glyph unicode="&#xdb;" horiz-adv-x="644" d="M225 727l-60 19l163 114l164 -114l-60 -19l-104 63zM564 674v-436q0 -62 -8 -91q-21 -73 -84 -114t-154 -41q-137 0 -200 90q-30 42 -36 94q-2 11 -2 62v422l63 14v-436q0 -53 9 -81t35 -54q46 -46 133 -46q106 0 154 69q27 41 27 112v422z" />
<glyph unicode="&#xdc;" horiz-adv-x="644" d="M421 731l-51 59l51 60l51 -60zM243 731l-51 59l51 60l51 -60zM564 674v-436q0 -62 -8 -91q-21 -73 -84 -114t-154 -41q-137 0 -200 90q-30 42 -36 94q-2 11 -2 62v422l63 14v-436q0 -53 9 -81t35 -54q46 -46 133 -46q106 0 154 69q27 41 27 112v422z" />
<glyph unicode="&#xdd;" horiz-adv-x="523" d="M244 723l-20 47l196 93l25 -56zM114 7l129 240l-243 413l66 17l213 -361l188 361l63 -17l-349 -673z" />
<glyph unicode="&#xde;" horiz-adv-x="483" d="M87 -7v667l63 14v-100q34 3 48 3q77 0 143 -34q51 -27 81.5 -79t30.5 -112q0 -97 -69.5 -160.5t-174.5 -63.5h-59v-121zM150 191q19 -1 38 -1q84 0 130 33q67 47 67 129q0 76 -53 119.5t-145 43.5q-5 0 -37 -2v-322z" />
<glyph unicode="&#xdf;" horiz-adv-x="540" d="M83 -14v341h-68l15 53h53v60q0 92 28 147q47 87 153 87q78 0 131.5 -52.5t53.5 -128.5q0 -90 -74 -139q59 -25 87 -60q39 -51 39 -112q0 -85 -58.5 -143.5t-143.5 -58.5q-53 0 -95.5 25t-65.5 69v-75zM138 156l20 4q15 -43 30 -65q18 -25 50 -41.5t64 -16.5q57 0 98 41.5 t41 97.5q0 45 -26.5 81t-71.5 51q-39 13 -92 13h-22l1 49q80 0 117 32q42 36 42 92q0 51 -36 87t-88 36q-55 0 -92 -37.5t-36 -94.5l1 -38v-291z" />
<glyph unicode="&#xe0;" horiz-adv-x="481" d="M286 547l-187 95l25 51l183 -105zM349 -6v60q-52 -68 -136 -68q-74 0 -123.5 49.5t-49.5 123.5t50.5 124.5t124.5 50.5q86 0 132 -60v14v7q1 9 1 32q0 57 -21 78q-29 32 -90 32q-52 0 -136 -32q-3 0 -16 -5l23 65q67 26 133 26q81 0 125 -41q24 -23 31 -50t7 -97v-297z M97 160q0 -53 34.5 -86.5t88.5 -33.5q55 0 93 34t38 84q0 52 -37 88t-91 36q-55 0 -90.5 -34.5t-35.5 -87.5z" />
<glyph unicode="&#xe1;" horiz-adv-x="481" d="M228 547l-20 41l182 105l26 -51zM349 -6v60q-52 -68 -136 -68q-74 0 -123.5 49.5t-49.5 123.5t50.5 124.5t124.5 50.5q86 0 132 -60v14v7q1 9 1 32q0 57 -21 78q-29 32 -90 32q-52 0 -136 -32q-3 0 -16 -5l23 65q67 26 133 26q81 0 125 -41q24 -23 31 -50t7 -97v-297z M97 160q0 -53 34.5 -86.5t88.5 -33.5q55 0 93 34t38 84q0 52 -37 88t-91 36q-55 0 -90.5 -34.5t-35.5 -87.5z" />
<glyph unicode="&#xe2;" horiz-adv-x="481" d="M164 550l-55 19l153 121l154 -121l-55 -19l-99 73zM349 -6v60q-52 -68 -136 -68q-74 0 -123.5 49.5t-49.5 123.5t50.5 124.5t124.5 50.5q86 0 132 -60v14v7q1 9 1 32q0 57 -21 78q-29 32 -90 32q-52 0 -136 -32q-3 0 -16 -5l23 65q67 26 133 26q81 0 125 -41 q24 -23 31 -50t7 -97v-297zM97 160q0 -53 34.5 -86.5t88.5 -33.5q55 0 93 34t38 84q0 52 -37 88t-91 36q-55 0 -90.5 -34.5t-35.5 -87.5z" />
<glyph unicode="&#xe3;" horiz-adv-x="481" d="M153 573l-41 27q43 57 97 57q26 0 61 -17q32 -16 49 -16q25 0 51 31l41 -29q-40 -56 -96 -56q-24 0 -56 15q-42 19 -56 19q-25 0 -50 -31zM349 -6v60q-52 -68 -136 -68q-74 0 -123.5 49.5t-49.5 123.5t50.5 124.5t124.5 50.5q86 0 132 -60v14v7q1 9 1 32q0 57 -21 78 q-29 32 -90 32q-52 0 -136 -32q-3 0 -16 -5l23 65q67 26 133 26q81 0 125 -41q24 -23 31 -50t7 -97v-297zM97 160q0 -53 34.5 -86.5t88.5 -33.5q55 0 93 34t38 84q0 52 -37 88t-91 36q-55 0 -90.5 -34.5t-35.5 -87.5z" />
<glyph unicode="&#xe4;" horiz-adv-x="481" d="M342 560l-45 56l45 58l47 -58zM173 560l-45 56l45 56l46 -56zM349 -6v60q-52 -68 -136 -68q-74 0 -123.5 49.5t-49.5 123.5t50.5 124.5t124.5 50.5q86 0 132 -60v14v7q1 9 1 32q0 57 -21 78q-29 32 -90 32q-52 0 -136 -32q-3 0 -16 -5l23 65q67 26 133 26q81 0 125 -41 q24 -23 31 -50t7 -97v-297zM97 160q0 -53 34.5 -86.5t88.5 -33.5q55 0 93 34t38 84q0 52 -37 88t-91 36q-55 0 -90.5 -34.5t-35.5 -87.5z" />
<glyph unicode="&#xe5;" horiz-adv-x="481" d="M258 544q-32 0 -54.5 23t-22.5 54t22.5 54t54.5 23q33 0 55.5 -22.5t22.5 -55.5q0 -31 -23 -53.5t-55 -22.5zM259 584q15 0 26 11t11 25q0 16 -10.5 27t-26.5 11q-15 0 -26.5 -11t-11.5 -26t11 -26t27 -11zM349 -6v60q-52 -68 -136 -68q-74 0 -123.5 49.5t-49.5 123.5 t50.5 124.5t124.5 50.5q86 0 132 -60v14v7q1 9 1 32q0 57 -21 78q-29 32 -90 32q-52 0 -136 -32q-3 0 -16 -5l23 65q67 26 133 26q81 0 125 -41q24 -23 31 -50t7 -97v-297zM97 160q0 -53 34.5 -86.5t88.5 -33.5q55 0 93 34t38 84q0 52 -37 88t-91 36q-55 0 -90.5 -34.5 t-35.5 -87.5z" />
<glyph unicode="&#xe6;" horiz-adv-x="833" d="M798 126v-73q-86 -66 -191 -66q-124 0 -206 107q-59 -107 -180 -107q-79 0 -130 48.5t-51 123.5q0 77 51 126t130 49q78 0 137 -58q2 24 2 28q0 61 -34 97t-92 36q-52 0 -147 -37l24 66q72 28 130 28t96.5 -23t67.5 -75q82 98 200 98q101 0 161 -60q16 -16 44 -58 l-373 -225q21 -42 46 -62q56 -45 128 -45q68 0 131 40q17 10 56 42zM418 205l308 187q-43 49 -116 49q-82 0 -139 -58.5t-57 -141.5q0 -13 4 -36zM97 160q0 -53 35.5 -86t92.5 -33t95.5 33.5t38.5 82.5q0 53 -38 88t-95 35t-93 -33.5t-36 -86.5z" />
<glyph unicode="&#xe7;" horiz-adv-x="483" d="M221 -89l30 79q-93 17 -152.5 86.5t-59.5 161.5q0 106 75.5 181t181.5 75q88 0 167 -58l-36 -44q-69 45 -135 45q-81 0 -137 -57.5t-56 -141.5q0 -83 55 -139t136 -56q66 0 137 48l36 -44q-80 -58 -169 -60l-16 -41q15 3 21 3q27 0 45.5 -18.5t18.5 -46.5 q0 -35 -27 -59.5t-67 -24.5q-42 0 -81 30l33 32q25 -20 50 -20q19 0 31 10t12 27q0 13 -8.5 21t-21.5 8q-11 0 -26 -8z" />
<glyph unicode="&#xe8;" horiz-adv-x="504" d="M313 547l-187 95l25 51l183 -105zM117 154q21 -50 67.5 -80t103.5 -30q84 0 181 83v-73q-89 -67 -184 -67q-101 0 -173.5 74.5t-72.5 179.5q0 107 71 180t176 73q133 0 196 -114zM100 208l301 186q-44 43 -116 43q-81 0 -135 -57t-54 -134q0 -4 4 -38z" />
<glyph unicode="&#xe9;" horiz-adv-x="504" d="M267 547l-20 41l182 105l26 -51zM117 154q21 -50 67.5 -80t103.5 -30q84 0 181 83v-73q-89 -67 -184 -67q-101 0 -173.5 74.5t-72.5 179.5q0 107 71 180t176 73q133 0 196 -114zM100 208l301 186q-44 43 -116 43q-81 0 -135 -57t-54 -134q0 -4 4 -38z" />
<glyph unicode="&#xea;" horiz-adv-x="504" d="M191 550l-55 19l153 121l154 -121l-55 -19l-99 73zM117 154q21 -50 67.5 -80t103.5 -30q84 0 181 83v-73q-89 -67 -184 -67q-101 0 -173.5 74.5t-72.5 179.5q0 107 71 180t176 73q133 0 196 -114zM100 208l301 186q-44 43 -116 43q-81 0 -135 -57t-54 -134q0 -4 4 -38z " />
<glyph unicode="&#xeb;" horiz-adv-x="504" d="M375 560l-45 56l45 58l47 -58zM206 560l-45 56l45 56l46 -56zM117 154q21 -50 67.5 -80t103.5 -30q84 0 181 83v-73q-89 -67 -184 -67q-101 0 -173.5 74.5t-72.5 179.5q0 107 71 180t176 73q133 0 196 -114zM100 208l301 186q-44 43 -116 43q-81 0 -135 -57t-54 -134 q0 -4 4 -38z" />
<glyph unicode="&#xec;" horiz-adv-x="209" d="M121 550l-155 95l26 52l149 -106zM77 -7v481l55 13v-480z" />
<glyph unicode="&#xed;" horiz-adv-x="209" d="M98 547l-20 41l149 105l26 -48zM77 -7v481l55 13v-480z" />
<glyph unicode="&#xee;" horiz-adv-x="209" d="M32 550l-51 19l127 121l126 -121l-51 -19l-75 73zM77 -7v481l55 13v-480z" />
<glyph unicode="&#xef;" horiz-adv-x="209" d="M167 560l-45 56l45 58l46 -58zM47 560l-45 56l45 56l46 -56zM77 -7v481l55 13v-480z" />
<glyph unicode="&#xf0;" horiz-adv-x="571" d="M347 601l81 -105q18 -23 55 -86q50 -89 50 -166q0 -107 -71.5 -182t-172.5 -75q-103 0 -176.5 75.5t-73.5 182.5q0 103 72.5 176t176.5 73q34 0 79 -13l-69 94l-84 -42l-13 48l66 34l-53 63l43 27l58 -66l82 44l14 -50zM157 101q25 -25 61 -41t69 -16q76 0 130.5 58.5 t54.5 139.5t-54.5 138t-131.5 57q-78 0 -132 -56.5t-54 -138.5q0 -84 57 -141z" />
<glyph unicode="&#xf1;" horiz-adv-x="522" d="M173 573l-41 27q43 57 97 57q26 0 61 -17q32 -16 49 -16q25 0 51 31l41 -29q-40 -56 -96 -56q-23 0 -56 15q-42 19 -56 19q-25 0 -50 -31zM77 -7v481l55 13v-80q51 87 153 87q71 0 117 -46q24 -24 33.5 -57t9.5 -93v-291l-55 -14v305q0 139 -113 139q-64 0 -104.5 -43.5 t-40.5 -113.5v-273z" />
<glyph unicode="&#xf2;" horiz-adv-x="571" d="M315 547l-187 95l25 51l183 -105zM39 244q0 104 72.5 177t175.5 73q104 0 174.5 -72t70.5 -179q0 -105 -72 -180.5t-172 -75.5q-102 0 -175.5 75.5t-73.5 181.5zM156 101q25 -25 61.5 -41t69.5 -16q76 0 130.5 58.5t54.5 139.5t-54.5 138t-131.5 57q-79 0 -133 -56.5 t-54 -138.5q0 -84 57 -141z" />
<glyph unicode="&#xf3;" horiz-adv-x="571" d="M275 547l-20 41l182 105l26 -51zM39 244q0 104 72.5 177t175.5 73q104 0 174.5 -72t70.5 -179q0 -105 -72 -180.5t-172 -75.5q-102 0 -175.5 75.5t-73.5 181.5zM156 101q25 -25 61.5 -41t69.5 -16q76 0 130.5 58.5t54.5 139.5t-54.5 138t-131.5 57q-79 0 -133 -56.5 t-54 -138.5q0 -84 57 -141z" />
<glyph unicode="&#xf4;" horiz-adv-x="571" d="M191 550l-55 19l153 121l154 -121l-55 -19l-99 73zM39 244q0 104 72.5 177t175.5 73q104 0 174.5 -72t70.5 -179q0 -105 -72 -180.5t-172 -75.5q-102 0 -175.5 75.5t-73.5 181.5zM156 101q25 -25 61.5 -41t69.5 -16q76 0 130.5 58.5t54.5 139.5t-54.5 138t-131.5 57 q-79 0 -133 -56.5t-54 -138.5q0 -84 57 -141z" />
<glyph unicode="&#xf5;" horiz-adv-x="571" d="M194 573l-41 27q43 57 97 57q26 0 61 -17q32 -16 49 -16q25 0 51 31l41 -29q-40 -56 -96 -56q-24 0 -56 15q-42 19 -56 19q-25 0 -50 -31zM39 244q0 104 72.5 177t175.5 73q104 0 174.5 -72t70.5 -179q0 -105 -72 -180.5t-172 -75.5q-102 0 -175.5 75.5t-73.5 181.5z M156 101q25 -25 61.5 -41t69.5 -16q76 0 130.5 58.5t54.5 139.5t-54.5 138t-131.5 57q-79 0 -133 -56.5t-54 -138.5q0 -84 57 -141z" />
<glyph unicode="&#xf6;" horiz-adv-x="571" d="M379 560l-45 56l45 58l47 -58zM210 560l-45 56l45 56l46 -56zM39 244q0 104 72.5 177t175.5 73q104 0 174.5 -72t70.5 -179q0 -105 -72 -180.5t-172 -75.5q-102 0 -175.5 75.5t-73.5 181.5zM156 101q25 -25 61.5 -41t69.5 -16q76 0 130.5 58.5t54.5 139.5t-54.5 138 t-131.5 57q-79 0 -133 -56.5t-54 -138.5q0 -84 57 -141z" />
<glyph unicode="&#xf7;" d="M261 426l-58 59l58 58l55 -58zM50 307l13 53h407l-13 -53h-407zM203 182l58 59l55 -59l-55 -59z" />
<glyph unicode="&#xf8;" horiz-adv-x="571" d="M42 13l58 63q-61 71 -61 168q0 104 73 177t176 73q85 0 151 -53l58 63l34 -34l-57 -62q58 -71 58 -162q0 -107 -71.5 -183t-172.5 -76q-82 0 -153 55l-59 -63zM140 119l259 279q-52 39 -114 39q-77 0 -131.5 -57t-54.5 -139q0 -65 41 -122zM174 84q57 -40 115 -40 q74 0 128.5 59t54.5 139q0 65 -40 121z" />
<glyph unicode="&#xf9;" horiz-adv-x="517" d="M288 547l-187 95l25 51l183 -105zM385 -13v81q-56 -81 -144 -81q-70 0 -115 45q-49 49 -49 147v295l55 13v-308q0 -62 30 -98.5t81 -36.5q63 0 107 51q20 24 27.5 49.5t7.5 70.5v259l55 13v-487z" />
<glyph unicode="&#xfa;" horiz-adv-x="517" d="M240 547l-20 41l182 105l26 -51zM385 -13v81q-56 -81 -144 -81q-70 0 -115 45q-49 49 -49 147v295l55 13v-308q0 -62 30 -98.5t81 -36.5q63 0 107 51q20 24 27.5 49.5t7.5 70.5v259l55 13v-487z" />
<glyph unicode="&#xfb;" horiz-adv-x="517" d="M167 550l-55 19l153 121l154 -121l-55 -19l-99 73zM385 -13v81q-56 -81 -144 -81q-70 0 -115 45q-49 49 -49 147v295l55 13v-308q0 -62 30 -98.5t81 -36.5q63 0 107 51q20 24 27.5 49.5t7.5 70.5v259l55 13v-487z" />
<glyph unicode="&#xfc;" horiz-adv-x="517" d="M356 560l-45 56l45 58l47 -58zM187 560l-45 56l45 56l46 -56zM385 -13v81q-56 -81 -144 -81q-70 0 -115 45q-49 49 -49 147v295l55 13v-308q0 -62 30 -98.5t81 -36.5q63 0 107 51q20 24 27.5 49.5t7.5 70.5v259l55 13v-487z" />
<glyph unicode="&#xfd;" horiz-adv-x="473" d="M222 547l-20 41l182 105l26 -51zM88 -176l124 246l-219 397l54 20l197 -354l174 354l54 -20l-328 -661z" />
<glyph unicode="&#xfe;" horiz-adv-x="609" d="M133 87v-261l-56 -13v854l55 13v-298q30 51 73 77q56 35 122 35q101 0 172.5 -74.5t71.5 -179.5q0 -106 -73 -179.5t-177 -73.5q-107 0 -188 100zM130 239q0 -82 55 -138.5t135 -56.5q77 0 134 58.5t57 138.5q0 84 -54 140t-134 56q-83 0 -138 -56.5t-55 -141.5z" />
<glyph unicode="&#xff;" horiz-adv-x="473" d="M330 560l-45 56l45 58l47 -58zM161 560l-45 56l45 56l46 -56zM88 -176l124 246l-219 397l54 20l197 -354l174 354l54 -20l-328 -661z" />
<glyph unicode="&#x152;" horiz-adv-x="1101" d="M680 0v128q-76 -80 -140 -112.5t-146 -32.5q-146 0 -248.5 101t-102.5 245q0 148 102.5 251.5t249.5 103.5q84 0 151 -32.5t134 -106.5v122h353l17 -60h-307v-240h259v-60h-259v-247h325l-18 -60h-370zM111 332q0 -118 82.5 -201t199.5 -83q116 0 201 84.5t85 200.5 q0 120 -84 203t-205 83q-115 0 -197 -84.5t-82 -202.5z" />
<glyph unicode="&#x153;" horiz-adv-x="966" d="M931 129v-73q-37 -32 -89.5 -51t-101.5 -19q-138 0 -222 131q-34 -49 -61 -71q-68 -59 -162 -59q-106 0 -181 73.5t-75 177.5q0 105 75.5 180.5t179.5 75.5q70 0 123 -31.5t101 -100.5q81 133 221 133q134 0 203 -116l-372 -227q20 -39 44 -60q55 -49 128 -49 q49 0 91.5 19.5t97.5 66.5zM551 206l308 187q-49 45 -120 45q-78 0 -135 -57.5t-57 -136.5q0 -14 4 -38zM99 237q0 -82 56.5 -137.5t139.5 -55.5q81 0 137.5 56.5t56.5 137.5q0 84 -57 141.5t-140 57.5q-81 0 -137 -58t-56 -142z" />
<glyph unicode="&#x178;" horiz-adv-x="523" d="M369 731l-51 59l51 60l51 -60zM191 731l-51 59l51 60l51 -60zM114 7l129 240l-243 413l66 17l213 -361l188 361l63 -17l-349 -673z" />
<glyph unicode="&#x2c6;" horiz-adv-x="500" d="M152 550l-55 19l153 121l154 -121l-55 -19l-99 73z" />
<glyph unicode="&#x2dc;" horiz-adv-x="500" d="M141 573l-41 27q43 57 97 57q26 0 61 -17q32 -16 49 -16q25 0 51 31l41 -29q-40 -56 -96 -56q-23 0 -56 15q-42 19 -56 19q-25 0 -50 -31z" />
<glyph unicode="&#x2000;" horiz-adv-x="437" />
<glyph unicode="&#x2001;" horiz-adv-x="875" />
<glyph unicode="&#x2002;" horiz-adv-x="437" />
<glyph unicode="&#x2003;" horiz-adv-x="875" />
<glyph unicode="&#x2004;" horiz-adv-x="291" />
<glyph unicode="&#x2005;" horiz-adv-x="218" />
<glyph unicode="&#x2006;" horiz-adv-x="145" />
<glyph unicode="&#x2007;" horiz-adv-x="145" />
<glyph unicode="&#x2008;" horiz-adv-x="109" />
<glyph unicode="&#x2009;" horiz-adv-x="175" />
<glyph unicode="&#x200a;" horiz-adv-x="48" />
<glyph unicode="&#x2010;" horiz-adv-x="207" d="M0 220v53h207v-53h-207z" />
<glyph unicode="&#x2011;" horiz-adv-x="207" d="M0 220v53h207v-53h-207z" />
<glyph unicode="&#x2012;" horiz-adv-x="207" d="M0 220v53h207v-53h-207z" />
<glyph unicode="&#x2013;" d="M43 220v53h433v-53h-433z" />
<glyph unicode="&#x2014;" horiz-adv-x="620" d="M0 220v53h620v-53h-620z" />
<glyph unicode="&#x2018;" horiz-adv-x="206" d="M101 493q-29 26 -39 40.5t-10 30.5q0 34 86 123l28 -25q-27 -29 -45 -55q-14 -19 -14 -33q0 -22 31 -39z" />
<glyph unicode="&#x2019;" horiz-adv-x="205" d="M69 494l-29 24q37 44 48 60t11 26q0 26 -30 41l36 42q47 -35 47 -71q0 -26 -33 -65q-40 -47 -50 -57z" />
<glyph unicode="&#x201a;" horiz-adv-x="205" d="M69 -4l36 43q27 -20 37 -35.5t10 -35.5q0 -26 -33 -65q-22 -27 -50 -58l-29 25q59 69 59 86q0 26 -30 40z" />
<glyph unicode="&#x201c;" horiz-adv-x="324" d="M100 499q-47 23 -47 64t83 124l28 -20q-43 -54 -50 -65t-7 -23q0 -25 29 -40zM218 499q-47 30 -47 65q0 20 14.5 41t70.5 79l28 -17l-25 -31q-33 -37 -33 -60q0 -17 30 -37z" />
<glyph unicode="&#x201d;" horiz-adv-x="324" d="M188 499l-27 20q42 54 49 65t7 22q0 27 -29 40l36 41q47 -19 47 -64q0 -41 -83 -124zM68 502l-28 17q15 19 26 30q32 39 32 59q0 15 -30 38l38 41q21 -12 34 -30t13 -35q0 -21 -14.5 -41t-70.5 -79z" />
<glyph unicode="&#x201e;" horiz-adv-x="324" d="M188 -2l36 41q47 -19 47 -65q0 -38 -80 -122l-30 19q42 54 49 65t7 22q0 26 -29 40zM68 -2l38 41q47 -29 47 -65q0 -21 -14.5 -41.5t-70.5 -79.5l-28 18l26 30q32 37 32 58q0 16 -30 39z" />
<glyph unicode="&#x2022;" horiz-adv-x="667" d="M335 200q-58 0 -98.5 40.5t-40.5 97.5q0 58 40.5 98.5t99.5 40.5q56 0 96.5 -41t40.5 -98t-40.5 -97.5t-97.5 -40.5z" />
<glyph unicode="&#x2026;" horiz-adv-x="714" d="M543 49l52 60l52 -60l-52 -59zM305 49l52 60l53 -60l-53 -59zM67 49l52 60l53 -60l-53 -59z" />
<glyph unicode="&#x202f;" horiz-adv-x="175" />
<glyph unicode="&#x2039;" horiz-adv-x="280" d="M190 108l-143 139l143 139l33 -32l-102 -107l102 -106z" />
<glyph unicode="&#x203a;" horiz-adv-x="280" d="M90 108l-33 31l102 107l-102 106l33 34l143 -140z" />
<glyph unicode="&#x205f;" horiz-adv-x="218" />
<glyph unicode="&#x20ac;" horiz-adv-x="754" d="M43 251l22 53h63q-1 9 -1 26t1 27h-85l22 53h71q27 121 122 197.5t219 76.5q128 0 234 -86l-29 -65q-39 39 -96 62.5t-112 23.5q-93 0 -167 -57.5t-101 -151.5h424l-22 -53h-412q-1 -11 -1 -25q0 -17 2 -28h389l-23 -53h-356q29 -91 103.5 -147t168.5 -56q122 0 204 88 v-85q-90 -68 -207 -68q-121 0 -218 76.5t-122 191.5h-93z" />
<glyph unicode="&#x2122;" horiz-adv-x="809" d="M299 291l83 395l139 -310l138 310l83 -395l-45 -8l-53 269l-123 -277l-124 277l-54 -269zM129 283v344h-116l12 40h254v-40h-106v-335z" />
<glyph unicode="&#x25fc;" horiz-adv-x="485" d="M0 485h485v-485h-485v485z" />
</font>
</defs>
</svg>
