<?xml version="1.0" standalone="no"?>
<!DOCTYPE svg PUBLIC "-//W3C//DTD SVG 1.1//EN" "http://www.w3.org/Graphics/SVG/1.1/DTD/svg11.dtd" >
<svg xmlns="http://www.w3.org/2000/svg">
<metadata></metadata>
<defs>
<font id="koch_geometricmedium" horiz-adv-x="547" >
<font-face units-per-em="1000" ascent="800" descent="-200" />
<missing-glyph horiz-adv-x="250" />
<glyph unicode="&#xfb01;" horiz-adv-x="554" d="M438 558l-62 77l62 78l61 -78zM74 -7v420h-66l30 87h36q3 73 23 107q48 85 184 85h12l23 -88q-12 1 -26 1q-80 0 -107 -33q-11 -13 -14 -25.5t-3 -46.5h126v-87h-126v-406zM392 -7v500l92 14v-500z" />
<glyph unicode="&#xfb02;" horiz-adv-x="555" d="M392 -7v687l92 13v-687zM74 -7v420h-66l30 87h36q3 73 23 107q48 85 184 85h12l23 -88q-12 1 -26 1q-80 0 -107 -33q-11 -13 -14 -25.5t-3 -46.5h126v-87h-126v-406z" />
<glyph horiz-adv-x="0" />
<glyph horiz-adv-x="333" />
<glyph unicode=" "  horiz-adv-x="250" />
<glyph unicode="&#x09;" horiz-adv-x="250" />
<glyph unicode="&#xa0;" horiz-adv-x="250" />
<glyph unicode="!" horiz-adv-x="290" d="M111 197l-11 460l109 17l-18 -464zM77 68l68 90l68 -90l-68 -90z" />
<glyph unicode="&#x22;" horiz-adv-x="356" d="M222 399l-16 268h101l-16 -268h-69zM65 399l-16 268h101l-16 -268h-69z" />
<glyph unicode="#" horiz-adv-x="600" d="M97 0l32 199h-108l12 82h108l19 117h-108l12 83h107l29 186h93l-30 -186h120l29 186h94l-29 -186h106l-12 -83h-106l-19 -117h107l-12 -82h-107l-31 -199h-96l32 199h-118l-32 -199h-92zM234 281h118l18 117h-118z" />
<glyph unicode="$" d="M64 176l66 55q54 -77 137 -77q46 0 76 27.5t30 69.5q0 45 -33 63q-25 14 -112 37q-82 21 -109 51q-38 40 -38 102q0 65 40 107.5t113 52.5v68l70 14v-81q86 -8 144 -71l-62 -53q-31 31 -56.5 43.5t-57.5 12.5q-46 0 -76.5 -23.5t-30.5 -58.5q0 -41 36 -60q15 -8 108 -32 q68 -17 103 -49q50 -48 50 -119q0 -41 -19 -79.5t-50 -60.5q-37 -25 -89 -32v-90l-71 -10v100q-110 6 -169 93z" />
<glyph unicode="%" horiz-adv-x="743" d="M161 6l292 547q-29 -15 -48 -15q-20 0 -51 15q2 -28 2 -30q0 -70 -47 -117t-117 -47q-67 0 -113 46t-46 113t47 114.5t112 47.5q29 0 51.5 -9t65.5 -38q54 -35 97 -35q34 0 67 19q17 10 50 52l11 14l51 -15l-362 -677zM196 428q39 0 64.5 25.5t25.5 64.5q0 38 -27 65 t-65 27q-37 0 -63.5 -26.5t-26.5 -63.5q0 -39 26.5 -65.5t65.5 -26.5zM385 150q0 65 48 112t115 47t114.5 -47t47.5 -114q0 -68 -47.5 -115.5t-115.5 -47.5t-115 48t-47 117zM456 148q0 -38 27 -65.5t65 -27.5q37 0 64 27.5t27 65.5q0 37 -27 63.5t-64 26.5t-64.5 -27 t-27.5 -63z" />
<glyph unicode="&#x26;" horiz-adv-x="626" d="M533 -22l-112 136q-45 -51 -74 -77q-56 -50 -127 -50q-76 0 -129.5 50.5t-53.5 121.5q0 64 47 119q19 23 99 83q12 8 22 16q-43 58 -59.5 92t-16.5 66q0 57 46.5 100t108.5 43q67 0 112.5 -41t45.5 -101q0 -47 -25.5 -84.5t-90.5 -87.5l100 -122l118 122l59 -60 l-123 -126l123 -148zM274 428q51 39 65.5 58t14.5 46q0 28 -19.5 47t-47.5 19q-29 0 -48.5 -20t-19.5 -49q0 -21 11.5 -42t43.5 -59zM367 178l-107 133q-72 -47 -100 -79.5t-28 -70.5q0 -37 25 -62.5t61 -25.5q30 0 62.5 23t86.5 82z" />
<glyph unicode="'" horiz-adv-x="199" d="M65 399l-16 268h101l-16 -268h-69z" />
<glyph unicode="(" horiz-adv-x="327" d="M294 -118l-47 -58q-51 40 -80 74t-58 86q-72 132 -72 283q0 144 74 271q27 47 55.5 79.5t80.5 78.5l47 -57q-41 -38 -64 -65.5t-47 -69.5q-66 -117 -66 -242q0 -127 61 -238q39 -70 116 -142z" />
<glyph unicode=")" horiz-adv-x="327" d="M33 -119q42 39 64.5 66.5t46.5 69.5q66 117 66 242q0 128 -61 238q-37 67 -116 141l47 58q52 -40 81 -74t57 -85q72 -130 72 -283q0 -144 -74 -271q-27 -47 -55 -80t-81 -79z" />
<glyph unicode="*" d="M137 369l81 112l-115 37l1 60l132 -43v122l57 17v-139l116 38l33 -49l-131 -43l71 -98l-36 -48l-81 112l-72 -98z" />
<glyph unicode="+" d="M239 112v187h-180l13 68h167v174l68 13v-187h180l-13 -68h-167v-174z" />
<glyph unicode="," horiz-adv-x="243" d="M81 107l110 16l-130 -320h-78z" />
<glyph unicode="-" horiz-adv-x="216" d="M0 210v79h216v-79h-216z" />
<glyph unicode="." horiz-adv-x="263" d="M63 66l68 90l68 -90l-68 -88z" />
<glyph unicode="/" horiz-adv-x="494" d="M-10 -152l380 846l67 -21l-382 -846z" />
<glyph unicode="0" d="M274 -16q-109 0 -173.5 95.5t-64.5 255.5q0 170 78 272q58 76 159 76q112 0 168 -87q70 -106 70 -264q0 -154 -66 -251t-171 -97zM272 72q74 0 109 82q33 80 33 184q0 122 -39 194q-34 63 -99 63q-68 0 -105.5 -69.5t-37.5 -196.5q0 -123 36 -190t103 -67z" />
<glyph unicode="1" d="M280 -7v533l-146 -87l-35 59l275 205v-696z" />
<glyph unicode="2" d="M41 0q113 118 261 293q93 108 93 181q0 51 -36.5 86t-89.5 35q-57 0 -95 -38.5t-38 -96.5q0 -51 30 -88.5t78 -45.5l-59 -75q-68 25 -107 80t-39 126q0 98 65 162t165 64q95 0 159 -60.5t64 -151.5q0 -52 -22 -100.5t-76 -116.5q-66 -83 -150 -164h263l-18 -90h-448z" />
<glyph unicode="3" d="M27 104l75 53q63 -85 164 -85q61 0 100.5 34t39.5 86q0 56 -48 91q-41 30 -118 30h-62v79h71q58 0 93.5 27.5t35.5 71.5q0 47 -34.5 75.5t-90.5 28.5q-43 0 -74 -16.5t-62 -55.5l-79 55q47 55 98 80t118 25q94 0 157.5 -51t63.5 -128q0 -99 -92 -145q49 -26 71 -48 q49 -51 49 -124q0 -90 -68 -146.5t-176 -56.5q-145 0 -232 120z" />
<glyph unicode="4" d="M9 157l404 547v-468h121l-17 -79h-104v-150l-92 -14v164h-312zM165 236h169v245z" />
<glyph unicode="5" d="M28 92l78 52q46 -72 130 -72q64 0 111 43.5t47 102.5q0 60 -47.5 103.5t-112.5 43.5q-76 0 -134 -58v360h356l-25 -89h-237v-132q46 7 64 7q94 0 163.5 -69t69.5 -163q0 -100 -72 -168.5t-176 -68.5q-133 0 -215 108z" />
<glyph unicode="6" d="M285 707l88 -42q-87 -98 -122.5 -143t-68.5 -100q56 34 114 34q90 0 155 -68q66 -71 66 -164q0 -100 -70.5 -170t-170.5 -70q-98 0 -169 66q-78 72 -78 184q0 64 24 128t80 150q62 96 152 195zM126 222q0 -63 43 -106.5t105 -43.5q60 0 103 43t43 103q0 63 -42.5 106.5 t-104.5 43.5q-59 0 -103 -43.5t-44 -102.5z" />
<glyph unicode="7" d="M153 -20l210 598h-329l25 89h428l-221 -670z" />
<glyph unicode="8" d="M36 172q0 113 125 170q-48 29 -66 46q-45 43 -45 111q0 80 62.5 132t158.5 52q94 0 154.5 -47t60.5 -121q0 -64 -44 -111q-22 -22 -67 -49q70 -34 102.5 -77t32.5 -104q0 -85 -63.5 -137.5t-167.5 -52.5q-109 0 -176 52t-67 136zM185 431q20 -15 87 -42q65 27 91 52.5 t26 62.5q0 41 -33 66t-86 25q-55 0 -89 -25t-34 -66q0 -47 38 -73zM133 179q0 -49 39 -78t104 -29q62 0 99.5 28t37.5 75q0 46 -35.5 75.5t-119.5 54.5q-125 -38 -125 -126z" />
<glyph unicode="9" d="M173 2q85 96 121 142t70 101q-57 -33 -114 -33q-91 0 -155 68q-66 71 -66 164q0 100 70 169.5t171 69.5q102 0 174.5 -70t72.5 -169q0 -198 -256 -484zM273 300q59 0 103 43.5t44 102.5q0 62 -43 105.5t-104 43.5t-104 -42.5t-43 -103.5q0 -62 43 -105.5t104 -43.5z" />
<glyph unicode=":" horiz-adv-x="263" d="M131 331l-68 88l68 89l68 -89zM63 66l68 90l68 -90l-68 -88z" />
<glyph unicode=";" horiz-adv-x="283" d="M167 329l-66 89l66 89l66 -89zM118 108l109 15l-131 -315h-75z" />
<glyph unicode="&#x3c;" horiz-adv-x="500" d="M33 299v78l433 209v-91l-335 -157l335 -157v-91z" />
<glyph unicode="=" d="M59 384l13 68h416l-14 -68h-415zM59 214l13 68h416l-14 -68h-415z" />
<glyph unicode="&#x3e;" horiz-adv-x="500" d="M34 90v91l335 157l-335 157v91l433 -209v-79z" />
<glyph unicode="?" horiz-adv-x="438" d="M167 187v65q0 28 11 50t40 52q55 56 71 83.5t16 62.5q0 47 -28 76.5t-72 29.5q-49 0 -79 -42q-17 -22 -23 -68l-90 37q14 62 50 100q59 62 145 62q80 0 136.5 -55.5t56.5 -134.5q0 -100 -99 -188q-34 -31 -40 -45t-6 -59v-13zM139 66l68 90l68 -90l-68 -88z" />
<glyph unicode="@" horiz-adv-x="783" d="M608 2l11 -49q-114 -48 -240 -48q-165 0 -257 98q-83 89 -83 219q0 157 117.5 270.5t281.5 113.5q133 0 219.5 -79t86.5 -199q0 -99 -59.5 -173t-139.5 -74q-47 0 -60 38q-1 5 -5 29q-58 -67 -138 -67q-59 0 -98.5 42t-39.5 104q0 79 62 141.5t140 62.5q73 0 111 -68 l10 57l58 7l-38 -219q-6 -33 -6 -49q0 -27 23 -27q48 0 87.5 60t39.5 131q0 102 -71.5 167t-184.5 65q-141 0 -242 -97.5t-101 -233.5q0 -106 67 -181q77 -87 223 -87q117 0 226 46zM265 233q0 -41 26.5 -68.5t65.5 -27.5q57 0 100 43t43 100q0 40 -27 67.5t-66 27.5 q-55 0 -98.5 -43.5t-43.5 -98.5z" />
<glyph unicode="A" horiz-adv-x="696" d="M-7 13l350 695l359 -695l-97 -26l-119 240h-274l-121 -240zM253 317h190l-95 188z" />
<glyph unicode="B" horiz-adv-x="546" d="M80 0v667q118 5 175 5q99 0 147 -33q74 -53 74 -143q0 -95 -86 -147q113 -43 113 -160q0 -88 -68 -145q-54 -44 -156 -44h-199zM177 382h65q52 0 77 12q57 27 57 96q0 47 -30.5 73t-86.5 26q-44 0 -82 -2v-205zM177 90h101q58 0 91.5 28t33.5 76q0 68 -62 95 q-27 11 -75 11h-89v-210z" />
<glyph unicode="C" horiz-adv-x="563" d="M533 118l-20 -115q-69 -20 -121 -20q-148 0 -250.5 102t-102.5 249q0 144 102.5 247t245.5 103q47 0 112 -17l23 -109q-75 33 -130 33q-106 0 -179.5 -75t-73.5 -183q0 -107 73.5 -182t178.5 -75q77 0 142 42z" />
<glyph unicode="D" horiz-adv-x="631" d="M80 0v666q112 6 162 6q166 0 262 -108q88 -101 88 -229q0 -132 -91 -229q-99 -106 -270 -106h-151zM177 90h65q107 0 178.5 70t71.5 174q0 61 -29 115t-82 89q-67 45 -168 45q-2 0 -36 -2v-491z" />
<glyph unicode="E" horiz-adv-x="527" d="M80 0v667h374l20 -90h-297v-186h242v-90h-242v-211h323l-26 -90h-394z" />
<glyph unicode="F" horiz-adv-x="479" d="M80 -7v674h359l20 -90h-282v-192h218v-90h-218v-288z" />
<glyph unicode="G" horiz-adv-x="736" d="M673 377v-301q-129 -93 -272 -93q-150 0 -254 101q-51 49 -79.5 114.5t-28.5 131.5q0 64 26.5 130t71.5 113q49 53 120 82t150 29q138 0 253 -92l-62 -71q-84 70 -186 70q-119 0 -197 -76q-34 -34 -55 -83.5t-21 -96.5t20.5 -97.5t52.5 -83.5q34 -35 87.5 -56.5 t106.5 -21.5q86 0 170 54v157h-216l32 90h281z" />
<glyph unicode="H" horiz-adv-x="692" d="M80 -7v667l97 14v-285h338v271l97 14v-667l-97 -14v306h-338v-292z" />
<glyph unicode="I" horiz-adv-x="257" d="M80 -7v667l97 14v-667z" />
<glyph unicode="J" horiz-adv-x="418" d="M12 27l53 83q52 -34 86 -34q46 0 72 32q24 30 24 97v455l97 14v-485q0 -93 -52.5 -150t-139.5 -57q-81 0 -140 45z" />
<glyph unicode="K" horiz-adv-x="565" d="M80 -7v667l97 13v-330l295 349l87 -41l-266 -308l266 -323l-100 -33l-282 345v-325z" />
<glyph unicode="L" horiz-adv-x="467" d="M73 0v660l97 14v-584h297l-40 -90h-354z" />
<glyph unicode="M" horiz-adv-x="832" d="M30 7l142 682l243 -504l245 504l142 -682l-99 -14l-85 416l-203 -423l-205 423l-83 -416z" />
<glyph unicode="N" horiz-adv-x="695" d="M80 -7v701l438 -478v444l97 13v-696l-438 480v-450z" />
<glyph unicode="O" horiz-adv-x="777" d="M144 81q-50 49 -77.5 115t-27.5 137q0 67 25.5 132t70.5 113q100 106 253 106q148 0 249 -101t101 -249q0 -145 -96 -246q-101 -105 -257 -105q-143 0 -241 98zM139 334q0 -105 73 -181.5t173 -76.5q107 0 180 73.5t73 180.5q0 108 -73.5 184.5t-176.5 76.5t-176 -75.5 t-73 -181.5z" />
<glyph unicode="P" horiz-adv-x="522" d="M80 -7v674q99 9 138 9q123 0 180 -35q46 -29 72 -76.5t26 -102.5q0 -90 -67 -152q-65 -59 -165 -59h-87v-244zM177 341h59q71 0 108 23q52 33 52 97q0 36 -18.5 65t-50.5 43q-33 15 -93 15q-32 0 -57 -4v-239z" />
<glyph unicode="Q" horiz-adv-x="777" d="M679 -70l-93 109q-83 -56 -197 -56q-148 0 -245 97q-105 105 -105 253q0 67 25.5 132t70.5 114q99 105 253 105q149 0 249.5 -101t100.5 -250q0 -135 -84 -233l110 -122zM518 251l67 -78q53 67 53 157q0 109 -72.5 185t-176.5 76t-177 -75.5t-73 -181.5q0 -107 73 -182.5 t176 -75.5q70 0 130 36l-78 91z" />
<glyph unicode="R" horiz-adv-x="539" d="M80 -7v674q75 5 142 5q116 0 178 -47q74 -56 74 -152q0 -91 -64 -143q-38 -30 -95 -40l204 -276l-103 -29l-239 332v-310zM177 345h40q68 0 108.5 33.5t40.5 89.5q0 54 -39.5 84.5t-109.5 30.5q-15 0 -40 -4v-234z" />
<glyph unicode="S" horiz-adv-x="508" d="M30 91l75 63q40 -46 69 -62t71 -16q55 0 89 29t34 75q0 53 -46 83q-20 14 -89 35q-92 28 -132 63q-60 52 -60 136q0 80 61 133.5t153 53.5q127 0 201 -96l-70 -71q-34 42 -62.5 57.5t-71.5 15.5q-49 0 -80 -26.5t-31 -67.5q0 -54 65 -85q22 -10 96 -32q78 -23 122 -74.5 t44 -118.5q0 -87 -64.5 -145t-161.5 -58q-130 0 -212 108z" />
<glyph unicode="T" horiz-adv-x="473" d="M188 -7v584h-188l34 90h419v-90h-168v-570z" />
<glyph unicode="U" horiz-adv-x="631" d="M73 217v443l97 14v-457q0 -70 31 -101q40 -40 115 -40q65 0 104 33q23 19 32 43t9 65v443l97 14v-457q0 -112 -65 -173t-184 -61q-113 0 -174.5 61t-61.5 173z" />
<glyph unicode="V" horiz-adv-x="586" d="M289 -20l-276 687l101 13l175 -481l184 481l99 -13z" />
<glyph unicode="W" horiz-adv-x="892" d="M308 -39l-301 706l102 13l199 -481l85 195l-114 273l94 13l71 -173l74 173l92 -13l-112 -273l85 -207l202 493l101 -13l-303 -706l-139 334z" />
<glyph unicode="X" horiz-adv-x="602" d="M3 28l239 331l-204 288l98 33l165 -244l176 244l95 -33l-212 -288l238 -339l-96 -40l-201 298l-207 -298z" />
<glyph unicode="Y" horiz-adv-x="550" d="M129 3l122 251l-258 401l99 25l206 -319l146 319l99 -25l-313 -675z" />
<glyph unicode="Z" horiz-adv-x="558" d="M19 0l360 583h-346l23 84h474l-358 -577h373l-26 -90h-500z" />
<glyph unicode="[" horiz-adv-x="327" d="M86 -160v840h182v-61h-102v-718h102v-61h-182z" />
<glyph unicode="\" horiz-adv-x="494" d="M439 -173l-382 846l68 21l379 -846z" />
<glyph unicode="]" horiz-adv-x="327" d="M59 -99h102v718h-102v61h182v-840h-182v61z" />
<glyph unicode="^" horiz-adv-x="500" d="M18 355l171 314h121l171 -314h-98l-134 242l-134 -242h-97z" />
<glyph unicode="_" horiz-adv-x="500" d="M0 -59h500v-83h-500v83z" />
<glyph unicode="`" horiz-adv-x="500" d="M298 567l-193 95l30 61l188 -109z" />
<glyph unicode="a" horiz-adv-x="524" d="M363 -7v58q-26 -35 -56 -49.5t-76 -14.5q-85 0 -139.5 51.5t-54.5 131.5q0 81 55.5 134t139.5 53q79 0 131 -49v20q0 37 -6.5 55t-23.5 28q-28 17 -87 17q-75 0 -150 -32l21 99q88 19 153 19q92 0 143 -53q23 -24 32 -53t9 -80v-321zM132 175q0 -44 31 -70t84 -26 t86 26.5t33 68.5q0 40 -34.5 67t-84.5 27t-82.5 -26t-32.5 -67z" />
<glyph unicode="b" horiz-adv-x="620" d="M57 253v427l92 13v-257q42 42 82 60t92 18q109 0 185.5 -76t76.5 -186q0 -107 -78 -187q-78 -79 -194 -79q-115 0 -185.5 73.5t-70.5 193.5zM146 249q0 -73 48.5 -121.5t121.5 -48.5t123.5 51t50.5 125t-48.5 123.5t-121.5 49.5t-123.5 -52t-50.5 -127z" />
<glyph unicode="c" horiz-adv-x="510" d="M428 133l62 -64q-78 -82 -190 -82q-111 0 -188 77t-77 189q0 109 77.5 187.5t184.5 78.5q103 0 193 -74l-62 -66q-36 28 -63 38.5t-61 10.5q-73 0 -123.5 -50t-50.5 -121q0 -74 51 -125.5t124 -51.5q65 0 123 53z" />
<glyph unicode="d" horiz-adv-x="627" d="M464 -7v81q-71 -87 -173 -87q-107 0 -181.5 76.5t-74.5 185.5q0 110 74.5 187.5t180.5 77.5q102 0 174 -67v233l92 13v-686zM130 255q0 -75 49 -125t122 -50q70 0 119.5 50.5t49.5 121.5q0 74 -50 125t-122 51q-71 0 -119.5 -50t-48.5 -123z" />
<glyph unicode="e" d="M495 162l20 -99q-103 -76 -210 -76q-112 0 -187 74q-83 78 -83 188q0 111 77 188t187 77q82 0 150 -47q46 -33 78 -91l-364 -214q50 -82 142 -82q85 0 190 82zM133 242l257 152q-37 34 -92 34q-66 0 -116 -50.5t-50 -116.5q0 -11 1 -19z" />
<glyph unicode="f" horiz-adv-x="322" d="M74 -7v420h-66l30 87h36q3 73 23 107q48 85 184 85h12l23 -88q-12 1 -26 1q-80 0 -107 -33q-11 -13 -14 -25.5t-3 -46.5h126v-87h-126v-406z" />
<glyph unicode="g" horiz-adv-x="494" d="M19 -49l70 56q59 -88 141 -88q56 0 94 32.5t38 79.5q0 49 -39.5 81.5t-98.5 32.5q-48 0 -117 -36l23 70q-43 18 -66 44q-41 46 -41 113q0 53 28.5 96.5t78.5 67.5q46 21 127 21q52 0 111 13t95 33l-23 -99l-59 -12q58 -50 58 -121q0 -105 -100 -145q42 -17 67 -41 q51 -49 51 -126q0 -85 -63.5 -139t-161.5 -54q-139 0 -213 121zM229 226q46 0 80.5 32t34.5 76t-32 74.5t-79 30.5q-49 0 -82 -30.5t-33 -75.5t32 -76t79 -31z" />
<glyph unicode="h" horiz-adv-x="565" d="M70 -7v687l92 13v-240q40 34 73.5 47.5t76.5 13.5q87 0 138 -57q45 -49 45 -148v-302l-92 -14v316q0 40 -5 57t-22 33q-32 29 -83 29q-59 0 -95 -33t-36 -86v-302z" />
<glyph unicode="i" horiz-adv-x="232" d="M117 558l-62 77l62 78l60 -78zM70 -7v500l92 14v-500z" />
<glyph unicode="j" horiz-adv-x="232" d="M115 555l-62 80l62 80l59 -80zM70 13v480l92 14v-500q0 -86 -38 -131q-47 -53 -130 -53h-26l-38 89h38q55 0 78.5 23t23.5 78z" />
<glyph unicode="k" horiz-adv-x="492" d="M70 -7v687l92 13v-421l218 252l78 -48l-188 -204l212 -236l-79 -52l-241 268v-245z" />
<glyph unicode="l" horiz-adv-x="232" d="M70 -7v687l92 13v-687z" />
<glyph unicode="m" horiz-adv-x="791" d="M70 -7v500l92 14v-65q46 72 124 72q88 0 126 -72q51 72 145 72q85 0 129 -56q20 -26 27.5 -55t7.5 -84v-312l-92 -14v326q0 63 -19 83q-23 26 -62 26q-49 0 -80 -35q-28 -32 -28 -97v-289l-92 -14v303q0 63 -12 90q-18 42 -71 42q-52 0 -81 -39q-22 -31 -22 -93v-289z " />
<glyph unicode="n" horiz-adv-x="563" d="M70 -7v500l92 14v-69q32 41 67 58.5t84 17.5q89 0 138 -57q24 -28 33 -60t9 -88v-302l-92 -14v316q0 40 -3.5 56t-16.5 31q-27 32 -82 32q-66 0 -104 -43q-33 -36 -33 -104v-274z" />
<glyph unicode="o" horiz-adv-x="607" d="M35 250q0 110 78 187t190 77q116 0 192 -76.5t76 -192.5q0 -110 -77 -184t-191 -74q-113 0 -190.5 75.5t-77.5 187.5zM130 255q0 -76 50.5 -125.5t128.5 -49.5q72 0 119.5 48t47.5 121q0 76 -49 127.5t-123 51.5q-73 0 -123.5 -50.5t-50.5 -122.5z" />
<glyph unicode="p" horiz-adv-x="630" d="M162 62v-222l-92 -13v666l92 14v-73q41 43 82 61.5t94 18.5q109 0 183 -76.5t74 -189.5q0 -108 -76.5 -184.5t-184.5 -76.5q-51 0 -89 16.5t-83 58.5zM157 255q0 -73 50.5 -124t124.5 -51q70 0 119 51.5t49 123.5q0 73 -47.5 123t-118.5 50q-72 0 -124.5 -51.5 t-52.5 -121.5z" />
<glyph unicode="q" horiz-adv-x="631" d="M468 -173v237q-73 -77 -176 -77q-108 0 -182.5 76.5t-74.5 186.5t74.5 187t180.5 77q97 0 178 -74v53l92 14v-669zM130 254q0 -76 47.5 -125t120.5 -49q72 0 122 51t50 124q0 72 -50.5 122.5t-121.5 50.5t-119.5 -50t-48.5 -124z" />
<glyph unicode="r" horiz-adv-x="371" d="M70 -7v500l92 14v-102q30 60 70 86t101 26q13 0 38 -4l-44 -93q-8 1 -22 1q-71 0 -111 -61q-32 -49 -32 -175v-178z" />
<glyph unicode="s" horiz-adv-x="408" d="M27 73l67 56q46 -49 102 -49q37 0 60.5 17.5t23.5 46.5q0 34 -31 52q-15 9 -69 22q-144 34 -144 147q0 63 47.5 106t117.5 43q95 0 158 -66l-58 -66q-45 46 -97 46q-32 0 -52.5 -17t-20.5 -44q0 -38 35 -53q17 -8 73 -21q65 -15 100.5 -54.5t35.5 -95.5q0 -70 -49 -113 t-129 -43q-55 0 -95 20t-75 66z" />
<glyph unicode="t" horiz-adv-x="329" d="M72 165v251h-77l35 87h42v128l92 24v-152h140v-87h-140v-251q0 -45 21.5 -65.5t70.5 -20.5q27 0 66 8l-18 -90q-39 -7 -70 -7q-162 0 -162 175z" />
<glyph unicode="u" horiz-adv-x="561" d="M399 -7v69q-67 -75 -151 -75q-38 0 -75.5 14.5t-60.5 38.5q-42 45 -42 152v301l92 14v-315q0 -59 26 -84q30 -28 76 -28q63 0 103 45q19 21 25.5 45.5t6.5 73.5v249l92 14v-500z" />
<glyph unicode="v" horiz-adv-x="475" d="M240 -43l-240 531l89 19l151 -353l144 353l91 -19z" />
<glyph unicode="w" horiz-adv-x="801" d="M219 -29l-219 524l92 12l134 -325l173 347l168 -347l140 325l94 -12l-221 -524l-181 357z" />
<glyph unicode="x" horiz-adv-x="470" d="M0 22l173 244l-156 220l80 36l134 -188l127 188l83 -36l-156 -220l185 -244l-87 -37l-152 207l-144 -207z" />
<glyph unicode="y" horiz-adv-x="485" d="M73 -162l133 259l-209 390l87 26l168 -316l151 316l86 -26l-326 -660z" />
<glyph unicode="z" horiz-adv-x="472" d="M10 0l302 418h-266l20 82h403l-304 -418h307l-24 -82h-438z" />
<glyph unicode="{" horiz-adv-x="500" d="M193 -44v162q0 42 -12.5 63t-43.5 28v75q30 7 43 27t13 58v169q0 73 35.5 106.5t111.5 33.5q2 0 8 -0.5t11 -0.5l23 -1v-79q-60 0 -77.5 -15t-17.5 -66v-153q0 -49 -12.5 -74.5t-45.5 -45.5q33 -19 45.5 -45.5t12.5 -75.5v-149q0 -52 17.5 -67.5t77.5 -15.5v-79 q-33 -1 -42 -1q-78 0 -112.5 34.5t-34.5 111.5z" />
<glyph unicode="|" horiz-adv-x="500" d="M204 -167v834h92v-834h-92z" />
<glyph unicode="}" horiz-adv-x="500" d="M119 -109q60 0 77.5 15t17.5 66v153q0 49 12.5 74t45.5 45q-33 20 -45.5 46.5t-12.5 74.5v149q0 52 -16 67.5t-69 15.5h-10v80h23h20q77 0 111.5 -34.5t34.5 -111.5v-161q0 -43 12.5 -63t43.5 -28v-76q-30 -7 -43 -26.5t-13 -57.5v-169q0 -74 -35 -107t-113 -33 q-8 0 -41 1v80z" />
<glyph unicode="~" horiz-adv-x="667" d="M144 575l-52 34q22 47 36 67q42 57 106 57q35 0 109 -32q66 -29 93 -29t45.5 13.5t39.5 48.5l54 -31q-30 -61 -61 -87q-40 -32 -89 -32q-32 0 -142 47q-33 14 -57 14q-25 0 -43.5 -16t-38.5 -54z" />
<glyph unicode="&#xa1;" horiz-adv-x="290" d="M146 333l-69 90l69 90l67 -90zM81 -173l19 455l80 13l11 -451z" />
<glyph unicode="&#xa2;" d="M268 92v120q-57 15 -91 46q-60 54 -60 135q0 67 41 116.5t110 66.5v76l63 11v-87q57 -9 96 -39l-44 -60q-35 29 -74 29q-48 0 -82.5 -33t-34.5 -79q0 -47 32.5 -79.5t78.5 -32.5q37 0 80 30l44 -57q-28 -21 -47.5 -30t-48.5 -13v-111z" />
<glyph unicode="&#xa3;" d="M33 0v85h79v227h-79l20 83h59v82q0 94 45 146q52 60 134 60q83 0 133 -55q35 -38 44 -97l-85 -24q-18 88 -90 88q-43 0 -71 -33q-20 -24 -20 -85v-82h125v-83h-125v-227h92q72 0 105 43q12 16 16.5 33.5t7.5 62.5q0 1 2 21l88 -24q-5 -96 -42 -147q-31 -42 -77.5 -58 t-140.5 -16h-220z" />
<glyph unicode="&#xa4;" d="M112 125l-47 47l51 51q-33 48 -33 110q0 61 33 111l-51 51l47 47l51 -52q50 34 110 34q61 0 111 -33l51 51l47 -47l-52 -51q34 -51 34 -111q0 -62 -34 -110l52 -51l-47 -47l-51 52q-51 -34 -111 -34q-57 0 -110 33zM273 216q45 0 78 34.5t33 81.5q0 49 -32.5 84t-78.5 35 q-44 0 -77 -35t-33 -82q0 -48 33 -83t77 -35z" />
<glyph unicode="&#xa5;" d="M227 -7v256h-164v77h157l-53 95h-118v77h76l-89 160l86 22l152 -276l152 276l85 -22l-88 -160h75v-77h-121l-56 -95h164v-77h-164v-242z" />
<glyph unicode="&#xa6;" horiz-adv-x="500" d="M204 329v338h92v-338h-92zM204 153h92v-320h-92v320z" />
<glyph unicode="&#xa7;" d="M75 -86l39 64q75 -64 154 -64q45 0 71 20t26 54q0 32 -21.5 55t-77.5 49q-98 46 -133 76q-48 40 -48 103q0 42 23 80t62 61q-76 44 -76 119q0 65 53 109t131 44q40 0 88 -16.5t77 -39.5l-47 -59q-64 41 -119 41q-43 0 -71 -21.5t-28 -54.5q0 -26 18.5 -42.5t81.5 -46.5 q109 -53 137 -78q46 -43 46 -109q0 -38 -23.5 -78t-57.5 -59q70 -49 70 -130q0 -70 -48 -111.5t-129 -41.5q-54 0 -107.5 20.5t-90.5 55.5zM313 156l7 6q35 31 47 48t12 42q0 34 -29.5 59.5t-112.5 63.5q-71 -44 -71 -99q0 -29 27 -51t120 -69z" />
<glyph unicode="&#xa8;" horiz-adv-x="500" d="M340 567l-62 76l62 78l60 -78zM162 567l-62 76l62 78l60 -78z" />
<glyph unicode="&#xa9;" horiz-adv-x="767" d="M38 333q0 146 102 247t249 101q139 0 239.5 -103t100.5 -245q0 -143 -101.5 -245t-243.5 -102q-143 0 -244.5 102t-101.5 245zM90 333q0 -124 86.5 -212t207.5 -88t207 88t86 212q0 123 -85.5 212t-203.5 89q-125 0 -211.5 -87.5t-86.5 -213.5zM499 219l-14 -73 q-41 -12 -75 -12q-91 0 -153.5 58t-62.5 142q0 82 62.5 140.5t150.5 58.5q25 0 69 -10l16 -69q-51 20 -82 20q-62 0 -105.5 -41t-43.5 -100q0 -58 43 -99t105 -41q46 0 90 26z" />
<glyph unicode="&#xaa;" horiz-adv-x="350" d="M235 262l-2 26q-32 -29 -78 -29q-55 0 -90.5 31.5t-35.5 79.5q0 49 36 81.5t91 32.5q48 0 79 -24q0 40 -17 49q-17 10 -52 10q-50 0 -101 -21l16 67q54 11 98 11q59 0 94 -32q27 -26 27 -81v-192zM166 320q31 0 51 15t20 38q0 22 -20.5 37t-50.5 15t-49.5 -14.5 t-19.5 -36.5q0 -25 18.5 -39.5t50.5 -14.5z" />
<glyph unicode="&#xab;" horiz-adv-x="430" d="M196 246l145 150l39 -40l-104 -110l104 -104l-39 -38zM188 104l-145 142l145 150l38 -40l-103 -110l103 -104z" />
<glyph unicode="&#xac;" horiz-adv-x="500" d="M33 181v86h433v-267h-92v181h-341z" />
<glyph unicode="&#xad;" horiz-adv-x="216" d="M0 210v79h216v-79h-216z" />
<glyph unicode="&#xae;" horiz-adv-x="767" d="M38 333q0 146 102 247t249 101q139 0 239.5 -103t100.5 -245q0 -143 -101.5 -245t-243.5 -102q-143 0 -244.5 102t-101.5 245zM90 333q0 -124 86.5 -212t207.5 -88t207 88t86 212q0 123 -85.5 212t-203.5 89q-125 0 -211.5 -87.5t-86.5 -213.5zM267 140v384q65 3 92 3 q71 0 111 -30.5t40 -84.5q0 -41 -24 -68.5t-68 -36.5l122 -154l-69 -18l-139 180v-167zM332 344h21q39 0 62.5 18t23.5 47t-23 45t-63 16q-11 0 -21 -1v-125z" />
<glyph unicode="&#xaf;" horiz-adv-x="500" d="M98 602v65h303v-65h-303z" />
<glyph unicode="&#xb0;" horiz-adv-x="500" d="M250 381q-61 0 -103.5 42t-42.5 103q0 58 43 99.5t103 41.5t102.5 -42t42.5 -101t-42.5 -101t-102.5 -42zM250 437q36 0 62 25.5t26 61.5t-26 61.5t-62 25.5t-62 -25.5t-26 -60.5q0 -37 25.5 -62.5t62.5 -25.5z" />
<glyph unicode="&#xb1;" d="M239 112v187h-180l13 68h167v174l68 13v-187h180l-13 -68h-167v-174zM59 0l13 68h416l-14 -68h-415z" />
<glyph unicode="&#xb2;" horiz-adv-x="348" d="M26 267q67 70 144 157q44 49 59 74.5t15 51.5q0 28 -21 47.5t-51 19.5q-33 0 -54.5 -21.5t-21.5 -53.5q0 -31 18.5 -51.5t49.5 -24.5l-41 -52q-44 16 -68.5 49.5t-24.5 76.5q0 59 40.5 98t101.5 39q59 0 98.5 -37t39.5 -92q0 -31 -13.5 -60t-46.5 -70q-42 -52 -83 -90 h153l-13 -61h-281z" />
<glyph unicode="&#xb3;" horiz-adv-x="348" d="M81 573l-54 37q32 36 62.5 51t73.5 15q58 0 97 -31.5t39 -77.5q0 -59 -50 -86q67 -35 67 -101q0 -54 -42 -88.5t-109 -34.5q-91 0 -144 75l51 36q37 -51 98 -51q35 0 57.5 19t22.5 47q0 32 -25 49.5t-71 17.5h-41v55h46q34 0 54 14.5t20 39.5t-19.5 41t-51.5 16 q-46 0 -81 -43z" />
<glyph unicode="&#xb4;" horiz-adv-x="500" d="M202 567l-25 47l188 109l30 -61z" />
<glyph unicode="&#xb5;" horiz-adv-x="561" d="M155 14l7 -170l-92 -17v666l92 14v-315q0 -59 26 -84q30 -28 76 -28q63 0 103 45q19 21 25.5 45.5t6.5 73.5v249l92 14v-500l-92 -14v69q-36 -41 -71 -58t-84 -17q-57 0 -89 27z" />
<glyph unicode="&#xb6;" horiz-adv-x="609" d="M218 -96v413h-14q-80 0 -130.5 48t-50.5 124q0 49 22 89t61 62q49 27 141 27h290v-71h-64v-692h-79v692h-97v-692h-79z" />
<glyph unicode="&#xb7;" horiz-adv-x="263" d="M131 158l-68 89l68 89l68 -89z" />
<glyph unicode="&#xb8;" horiz-adv-x="500" d="M181 -89l34 89h50l-21 -54q15 3 20 3q29 0 47.5 -19t18.5 -49q0 -37 -27 -60t-70 -23q-50 0 -89 31l27 37q31 -25 61 -25q18 0 29 10t11 26q0 14 -8 22.5t-22 8.5q-11 0 -24 -8z" />
<glyph unicode="&#xb9;" horiz-adv-x="348" d="M174 263v311l-85 -50l-25 41l174 128v-421z" />
<glyph unicode="&#xba;" horiz-adv-x="402" d="M201 259q-73 0 -123 45.5t-50 112.5t50.5 113t122.5 46q75 0 124 -46t49 -116q0 -66 -49.5 -110.5t-123.5 -44.5zM205 320q44 0 72.5 27.5t28.5 69.5q0 44 -30 73t-75 29q-44 0 -74.5 -29t-30.5 -70q0 -43 31 -71.5t78 -28.5z" />
<glyph unicode="&#xbb;" horiz-adv-x="433" d="M206 144l104 110l-104 104l39 38l145 -142l-145 -150zM91 104l-38 40l103 110l-103 104l38 38l145 -142z" />
<glyph unicode="&#xbc;" horiz-adv-x="831" d="M174 263v311l-85 -50l-25 41l174 128v-421zM204 10l367 667l55 -19l-365 -668zM491 93l254 337v-283h74l-12 -54h-62v-88l-63 -9v97h-191zM600 147h90v127z" />
<glyph unicode="&#xbd;" horiz-adv-x="831" d="M174 263v311l-85 -50l-25 41l174 128v-421zM204 10l367 667l55 -19l-365 -668zM509 0q41 43 144 157q44 49 59 74.5t15 51.5q0 28 -21 47.5t-51 19.5q-33 0 -55 -21.5t-22 -53.5q0 -31 18.5 -51.5t50.5 -24.5l-41 -52q-44 16 -69 49t-25 77q0 59 40.5 98t101.5 39 q59 0 99 -37t40 -92q0 -31 -13.5 -60t-46.5 -70q-37 -46 -83 -90h152l-12 -61h-281z" />
<glyph unicode="&#xbe;" horiz-adv-x="831" d="M205 10l366 667l56 -19l-365 -668zM81 573l-54 37q32 36 62.5 51t73.5 15q58 0 97 -31.5t39 -77.5q0 -59 -50 -86q67 -35 67 -101q0 -54 -42 -88.5t-109 -34.5q-91 0 -144 75l51 36q37 -51 98 -51q35 0 57.5 19t22.5 47q0 32 -25 49.5t-71 17.5h-41v55h46q34 0 54 14.5 t20 39.5t-19.5 41t-51.5 16q-46 0 -81 -43zM491 93l254 337v-283h74l-12 -54h-62v-88l-63 -9v97h-191zM600 147h90v127z" />
<glyph unicode="&#xbf;" horiz-adv-x="438" d="M231 329l-68 89l68 89l68 -89zM335 -11l90 -37q-15 -64 -50 -100q-59 -62 -145 -62q-80 0 -136.5 55.5t-56.5 134.5q0 99 99 188q34 31 40.5 45.5t5.5 58.5q0 6 1 13l88 12v-64q0 -29 -11 -50.5t-40 -51.5q-55 -57 -71 -84t-16 -62q0 -46 28 -76t72 -30q49 0 79 42 q17 22 23 68z" />
<glyph unicode="&#xc0;" horiz-adv-x="696" d="M359 730l-206 83l30 67l201 -97zM-7 13l350 695l359 -695l-97 -26l-119 240h-274l-121 -240zM253 317h190l-95 188z" />
<glyph unicode="&#xc1;" horiz-adv-x="696" d="M334 730l-25 53l201 97l30 -67zM-7 13l350 695l359 -695l-97 -26l-119 240h-274l-121 -240zM253 317h190l-95 188z" />
<glyph unicode="&#xc2;" horiz-adv-x="696" d="M167 741l180 129l180 -129l-83 -14l-97 60l-97 -60zM-7 13l350 695l359 -695l-97 -26l-119 240h-274l-121 -240zM253 317h190l-95 188z" />
<glyph unicode="&#xc3;" horiz-adv-x="696" d="M228 740l-47 37q47 66 117 66q30 0 69 -18q37 -18 57 -18q34 0 63 33l48 -38q-45 -62 -112 -62q-21 0 -33.5 4t-54.5 24q-18 9 -37 9q-36 0 -70 -37zM-7 13l350 695l359 -695l-97 -26l-119 240h-274l-121 -240zM253 317h190l-95 188z" />
<glyph unicode="&#xc4;" horiz-adv-x="696" d="M445 720l-67 80l67 80l65 -80zM249 720l-66 80l66 80l65 -80zM-7 13l350 695l359 -695l-97 -26l-119 240h-274l-121 -240zM253 317h190l-95 188z" />
<glyph unicode="&#xc5;" horiz-adv-x="696" d="M342 717q-38 0 -65.5 28t-27.5 66t28 66.5t65 28.5q38 0 67 -29t29 -67q0 -39 -28 -66t-68 -27zM344 771q18 0 29 10.5t11 27.5t-12.5 30t-28.5 13t-28 -12t-12 -29t12 -28.5t29 -11.5zM-7 13l350 695l359 -695l-97 -26l-119 240h-274l-121 -240zM253 317h190l-95 188z " />
<glyph unicode="&#xc6;" horiz-adv-x="921" d="M-37 19l452 648h433l20 -90h-300v-182h244v-90h-244v-215h326l-26 -90h-397v298h-195l-215 -312zM337 388h134v197z" />
<glyph unicode="&#xc7;" horiz-adv-x="563" d="M275 -85l30 79q-119 29 -192.5 123t-73.5 217q0 144 102.5 247t245.5 103q47 0 112 -17l23 -109q-75 33 -130 33q-106 0 -179.5 -75t-73.5 -183q0 -107 73.5 -182t178.5 -75q77 0 142 42l-20 -115q-71 -20 -124 -20q-8 0 -36 2l-13 -34q15 3 21 3q29 0 48 -19.5t19 -50.5 q0 -39 -27.5 -63t-71.5 -24q-51 0 -91 32l27 39q31 -26 63 -26q19 0 30 10t11 27q0 15 -8.5 24t-22.5 9q-11 0 -25 -9z" />
<glyph unicode="&#xc8;" horiz-adv-x="527" d="M322 723l-206 83l30 67l201 -97zM80 0v667h374l20 -90h-297v-186h242v-90h-242v-211h323l-26 -90h-394z" />
<glyph unicode="&#xc9;" horiz-adv-x="527" d="M239 723l-25 53l201 97l30 -67zM80 0v667h374l20 -90h-297v-186h242v-90h-242v-211h323l-26 -90h-394z" />
<glyph unicode="&#xca;" horiz-adv-x="527" d="M93 741l180 129l180 -129l-83 -14l-97 60l-97 -60zM80 0v667h374l20 -90h-297v-186h242v-90h-242v-211h323l-26 -90h-394z" />
<glyph unicode="&#xcb;" horiz-adv-x="527" d="M375 720l-67 80l67 80l65 -80zM179 720l-66 80l66 80l65 -80zM80 0v667h374l20 -90h-297v-186h242v-90h-242v-211h323l-26 -90h-394z" />
<glyph unicode="&#xcc;" horiz-adv-x="257" d="M146 723l-173 86l30 64l168 -97zM80 -7v667l97 14v-667z" />
<glyph unicode="&#xcd;" horiz-adv-x="257" d="M114 723l-25 53l168 97l30 -64zM80 -7v667l97 14v-667z" />
<glyph unicode="&#xce;" horiz-adv-x="257" d="M62 727l-77 14l147 129l146 -129l-76 -14l-70 60zM80 -7v667l97 14v-667z" />
<glyph unicode="&#xcf;" horiz-adv-x="257" d="M208 720l-63 80l63 80l63 -80zM55 720l-63 80l63 80l62 -80zM80 -7v667l97 14v-667z" />
<glyph unicode="&#xd0;" horiz-adv-x="631" d="M80 0v307h-80l17 77h63v282q112 6 162 6q166 0 262 -108q41 -46 64.5 -107t23.5 -122q0 -132 -91 -229q-99 -106 -270 -106h-151zM177 90h65q107 0 178.5 70t71.5 174q0 61 -29 115t-82 89q-67 45 -168 45q-2 0 -36 -2v-197h162v-77h-162v-217z" />
<glyph unicode="&#xd1;" horiz-adv-x="695" d="M234 740l-47 37q47 66 117 66q30 0 69 -18q37 -18 57 -18q34 0 63 33l48 -38q-45 -62 -112 -62q-21 0 -33.5 4t-54.5 24q-18 9 -37 9q-36 0 -70 -37zM80 -7v701l438 -478v444l97 13v-696l-438 480v-450z" />
<glyph unicode="&#xd2;" horiz-adv-x="777" d="M209 806l30 67l201 -97l-25 -53zM144 81q-50 49 -77.5 115t-27.5 137q0 67 25.5 132t70.5 113q100 106 253 106q148 0 249 -101t101 -249q0 -145 -96 -246q-101 -105 -257 -105q-143 0 -241 98zM139 334q0 -105 73 -181.5t173 -76.5q107 0 180 73.5t73 180.5 q0 108 -73.5 184.5t-176.5 76.5t-176 -75.5t-73 -181.5z" />
<glyph unicode="&#xd3;" horiz-adv-x="777" d="M371 723l-25 53l201 97l30 -67zM144 81q-50 49 -77.5 115t-27.5 137q0 67 25.5 132t70.5 113q100 106 253 106q148 0 249 -101t101 -249q0 -145 -96 -246q-101 -105 -257 -105q-143 0 -241 98zM139 334q0 -105 73 -181.5t173 -76.5q107 0 180 73.5t73 180.5 q0 108 -73.5 184.5t-176.5 76.5t-176 -75.5t-73 -181.5z" />
<glyph unicode="&#xd4;" horiz-adv-x="777" d="M212 741l180 129l180 -129l-83 -14l-97 60l-97 -60zM144 81q-50 49 -77.5 115t-27.5 137q0 67 25.5 132t70.5 113q100 106 253 106q148 0 249 -101t101 -249q0 -145 -96 -246q-101 -105 -257 -105q-143 0 -241 98zM139 334q0 -105 73 -181.5t173 -76.5q107 0 180 73.5 t73 180.5q0 108 -73.5 184.5t-176.5 76.5t-176 -75.5t-73 -181.5z" />
<glyph unicode="&#xd5;" horiz-adv-x="777" d="M275 740l-47 37q47 66 117 66q30 0 69 -18q37 -18 57 -18q34 0 63 33l48 -38q-45 -62 -112 -62q-21 0 -33.5 4t-54.5 24q-18 9 -37 9q-36 0 -70 -37zM144 81q-50 49 -77.5 115t-27.5 137q0 67 25.5 132t70.5 113q100 106 253 106q148 0 249 -101t101 -249 q0 -145 -96 -246q-101 -105 -257 -105q-143 0 -241 98zM139 334q0 -105 73 -181.5t173 -76.5q107 0 180 73.5t73 180.5q0 108 -73.5 184.5t-176.5 76.5t-176 -75.5t-73 -181.5z" />
<glyph unicode="&#xd6;" horiz-adv-x="777" d="M491 720l-67 80l67 80l65 -80zM295 720l-66 80l66 80l65 -80zM144 81q-50 49 -77.5 115t-27.5 137q0 67 25.5 132t70.5 113q100 106 253 106q148 0 249 -101t101 -249q0 -145 -96 -246q-101 -105 -257 -105q-143 0 -241 98zM139 334q0 -105 73 -181.5t173 -76.5 q107 0 180 73.5t73 180.5q0 108 -73.5 184.5t-176.5 76.5t-176 -75.5t-73 -181.5z" />
<glyph unicode="&#xd7;" d="M126 142l-44 43l148 148l-148 149l44 43l148 -148l148 148l43 -43l-148 -148l148 -149l-43 -43l-148 148z" />
<glyph unicode="&#xd8;" horiz-adv-x="777" d="M36 38l78 76q-75 100 -75 219q0 67 25.5 132t70.5 113q100 106 253 106q127 0 223 -78l81 79l49 -57l-77 -76q74 -95 74 -220q0 -142 -97 -244q-101 -105 -252 -105q-129 0 -223 77l-81 -80zM185 185l356 351q-70 55 -153 55q-103 0 -176 -75.5t-73 -181.5q0 -75 46 -149 zM236 130q69 -54 152 -54q104 0 177 74t73 179q0 85 -46 152z" />
<glyph unicode="&#xd9;" horiz-adv-x="631" d="M356 723l-206 83l30 67l201 -97zM73 217v443l97 14v-457q0 -70 31 -101q40 -40 115 -40q65 0 104 33q23 19 32 43t9 65v443l97 14v-457q0 -112 -65 -173t-184 -61q-113 0 -174.5 61t-61.5 173z" />
<glyph unicode="&#xda;" horiz-adv-x="631" d="M291 723l-25 53l201 97l30 -67zM73 217v443l97 14v-457q0 -70 31 -101q40 -40 115 -40q65 0 104 33q23 19 32 43t9 65v443l97 14v-457q0 -112 -65 -173t-184 -61q-113 0 -174.5 61t-61.5 173z" />
<glyph unicode="&#xdb;" horiz-adv-x="631" d="M142 741l180 129l180 -129l-83 -14l-97 60l-97 -60zM73 217v443l97 14v-457q0 -70 31 -101q40 -40 115 -40q65 0 104 33q23 19 32 43t9 65v443l97 14v-457q0 -112 -65 -173t-184 -61q-113 0 -174.5 61t-61.5 173z" />
<glyph unicode="&#xdc;" horiz-adv-x="631" d="M421 720l-67 80l67 80l65 -80zM225 720l-66 80l66 80l65 -80zM73 217v443l97 14v-457q0 -70 31 -101q40 -40 115 -40q65 0 104 33q23 19 32 43t9 65v443l97 14v-457q0 -112 -65 -173t-184 -61q-113 0 -174.5 61t-61.5 173z" />
<glyph unicode="&#xdd;" horiz-adv-x="550" d="M253 723l-25 53l201 97l30 -67zM129 3l122 251l-258 401l99 25l206 -319l146 319l99 -25l-313 -675z" />
<glyph unicode="&#xde;" horiz-adv-x="522" d="M80 -7v667l97 14v-103q35 5 62 5q101 0 159 -35q46 -28 72 -75.5t26 -103.5q0 -90 -67 -151q-64 -60 -165 -60h-87v-144zM177 241h59q71 0 108 23q52 33 52 97q0 36 -18.5 65t-50.5 43q-33 15 -93 15q-32 0 -57 -4v-239z" />
<glyph unicode="&#xdf;" horiz-adv-x="586" d="M78 -70v409h-84l26 80h58v36q0 61 10.5 96t38.5 69q62 76 169 76q88 0 147 -52.5t59 -130.5q0 -99 -85 -146q63 -19 98.5 -66.5t35.5 -113.5q0 -86 -61 -143.5t-152 -57.5q-55 0 -94 20t-74 67v-109zM170 169l31 10q25 -55 57.5 -79.5t79.5 -24.5q53 0 85.5 33t32.5 87 q0 57 -40 90t-109 33h-40v83h30q47 0 78.5 29.5t31.5 72.5q0 46 -31.5 75t-81.5 29q-35 0 -64 -16.5t-43 -44.5q-17 -35 -17 -127v-250z" />
<glyph unicode="&#xe0;" horiz-adv-x="524" d="M323 567l-193 95l30 61l188 -109zM363 -7v58q-26 -35 -56 -49.5t-76 -14.5q-85 0 -139.5 51.5t-54.5 131.5q0 81 55.5 134t139.5 53q79 0 131 -49v20q0 37 -6.5 55t-23.5 28q-28 17 -87 17q-75 0 -150 -32l21 99q88 19 153 19q92 0 143 -53q23 -24 32 -53t9 -80v-321z M132 175q0 -44 31 -70t84 -26t86 26.5t33 68.5q0 40 -34.5 67t-84.5 27t-82.5 -26t-32.5 -67z" />
<glyph unicode="&#xe1;" horiz-adv-x="524" d="M252 567l-25 47l188 109l30 -61zM363 -7v58q-26 -35 -56 -49.5t-76 -14.5q-85 0 -139.5 51.5t-54.5 131.5q0 81 55.5 134t139.5 53q79 0 131 -49v20q0 37 -6.5 55t-23.5 28q-28 17 -87 17q-75 0 -150 -32l21 99q88 19 153 19q92 0 143 -53q23 -24 32 -53t9 -80v-321z M132 175q0 -44 31 -70t84 -26t86 26.5t33 68.5q0 40 -34.5 67t-84.5 27t-82.5 -26t-32.5 -67z" />
<glyph unicode="&#xe2;" horiz-adv-x="524" d="M109 584l170 136l170 -136l-79 -14l-91 69l-91 -69zM363 -7v58q-26 -35 -56 -49.5t-76 -14.5q-85 0 -139.5 51.5t-54.5 131.5q0 81 55.5 134t139.5 53q79 0 131 -49v20q0 37 -6.5 55t-23.5 28q-28 17 -87 17q-75 0 -150 -32l21 99q88 19 153 19q92 0 143 -53 q23 -24 32 -53t9 -80v-321zM132 175q0 -44 31 -70t84 -26t86 26.5t33 68.5q0 40 -34.5 67t-84.5 27t-82.5 -26t-32.5 -67z" />
<glyph unicode="&#xe3;" horiz-adv-x="524" d="M164 586l-46 36q44 65 113 65q31 0 67 -18q37 -18 55 -18q34 0 61 33l46 -37q-43 -61 -104 -61q-20 0 -33.5 4t-55.5 23q-18 9 -36 9q-37 0 -67 -36zM363 -7v58q-26 -35 -56 -49.5t-76 -14.5q-85 0 -139.5 51.5t-54.5 131.5q0 81 55.5 134t139.5 53q79 0 131 -49v20 q0 37 -6.5 55t-23.5 28q-28 17 -87 17q-75 0 -150 -32l21 99q88 19 153 19q92 0 143 -53q23 -24 32 -53t9 -80v-321zM132 175q0 -44 31 -70t84 -26t86 26.5t33 68.5q0 40 -34.5 67t-84.5 27t-82.5 -26t-32.5 -67z" />
<glyph unicode="&#xe4;" horiz-adv-x="524" d="M372 567l-62 76l62 78l60 -78zM194 567l-62 76l62 78l60 -78zM363 -7v58q-26 -35 -56 -49.5t-76 -14.5q-85 0 -139.5 51.5t-54.5 131.5q0 81 55.5 134t139.5 53q79 0 131 -49v20q0 37 -6.5 55t-23.5 28q-28 17 -87 17q-75 0 -150 -32l21 99q88 19 153 19q92 0 143 -53 q23 -24 32 -53t9 -80v-321zM132 175q0 -44 31 -70t84 -26t86 26.5t33 68.5q0 40 -34.5 67t-84.5 27t-82.5 -26t-32.5 -67z" />
<glyph unicode="&#xe5;" horiz-adv-x="524" d="M281 560q-38 0 -65.5 28t-27.5 66t28 66.5t65 28.5q38 0 67 -29t29 -67q0 -39 -28 -66t-68 -27zM283 614q18 0 29 10.5t11 27.5t-12.5 30t-28.5 13t-28 -12t-12 -29t12 -28.5t29 -11.5zM363 -7v58q-26 -35 -56 -49.5t-76 -14.5q-85 0 -139.5 51.5t-54.5 131.5 q0 81 55.5 134t139.5 53q79 0 131 -49v20q0 37 -6.5 55t-23.5 28q-28 17 -87 17q-75 0 -150 -32l21 99q88 19 153 19q92 0 143 -53q23 -24 32 -53t9 -80v-321zM132 175q0 -44 31 -70t84 -26t86 26.5t33 68.5q0 40 -34.5 67t-84.5 27t-82.5 -26t-32.5 -67z" />
<glyph unicode="&#xe6;" horiz-adv-x="851" d="M800 165l22 -101q-104 -77 -211 -77q-130 0 -209 100q-43 -55 -83.5 -78t-95.5 -23q-80 0 -133 53t-53 133q0 79 53.5 131.5t133.5 52.5q75 0 124 -48v22q0 51 -24 74t-77 23q-69 0 -149 -29l23 98q73 18 131 18q59 0 97 -17.5t68 -57.5q70 75 187 75q151 0 227 -134 l-366 -215q24 -39 51 -57q44 -28 97 -28q45 0 82 16.5t105 68.5zM440 248l254 150q-39 30 -90 30q-67 0 -117.5 -48t-47.5 -110zM132 174q0 -41 29.5 -68t74.5 -27q48 0 79.5 26.5t31.5 65.5q0 41 -30.5 68.5t-76.5 27.5q-47 0 -77.5 -26.5t-30.5 -66.5z" />
<glyph unicode="&#xe7;" horiz-adv-x="510" d="M221 -89l30 80q-94 17 -155 91t-61 171q0 109 77.5 187.5t184.5 78.5q105 0 193 -74l-62 -66q-36 28 -63 38.5t-61 10.5q-73 0 -123.5 -50t-50.5 -121q0 -74 51 -125.5t124 -51.5q63 0 123 53l62 -64q-76 -84 -190 -82l-16 -41q15 3 20 3q29 0 47.5 -19t18.5 -49 q0 -37 -27 -60t-70 -23q-50 0 -89 31l27 37q29 -25 61 -25q18 0 29 10t11 26q0 14 -8 22.5t-22 8.5q-10 0 -25 -8z" />
<glyph unicode="&#xe8;" d="M321 567l-193 95l30 61l188 -109zM495 162l20 -99q-103 -76 -210 -76q-112 0 -187 74q-83 78 -83 188q0 111 77 188t187 77q82 0 150 -47q46 -33 78 -91l-364 -214q50 -82 142 -82q85 0 190 82zM133 242l257 152q-37 34 -92 34q-66 0 -116 -50.5t-50 -116.5q0 -11 1 -19z " />
<glyph unicode="&#xe9;" d="M271 567l-25 47l188 109l30 -61zM495 162l20 -99q-103 -76 -210 -76q-112 0 -187 74q-83 78 -83 188q0 111 77 188t187 77q82 0 150 -47q46 -33 78 -91l-364 -214q50 -82 142 -82q85 0 190 82zM133 242l257 152q-37 34 -92 34q-66 0 -116 -50.5t-50 -116.5q0 -11 1 -19z " />
<glyph unicode="&#xea;" d="M127 584l170 136l170 -136l-79 -14l-91 69l-91 -69zM495 162l20 -99q-103 -76 -210 -76q-112 0 -187 74q-83 78 -83 188q0 111 77 188t187 77q82 0 150 -47q46 -33 78 -91l-364 -214q50 -82 142 -82q85 0 190 82zM133 242l257 152q-37 34 -92 34q-66 0 -116 -50.5 t-50 -116.5q0 -11 1 -19z" />
<glyph unicode="&#xeb;" d="M387 567l-62 76l62 78l60 -78zM209 567l-62 76l62 78l60 -78zM495 162l20 -99q-103 -76 -210 -76q-112 0 -187 74q-83 78 -83 188q0 111 77 188t187 77q82 0 150 -47q46 -33 78 -91l-364 -214q50 -82 142 -82q85 0 190 82zM133 242l257 152q-37 34 -92 34 q-66 0 -116 -50.5t-50 -116.5q0 -11 1 -19z" />
<glyph unicode="&#xec;" horiz-adv-x="232" d="M132 567l-160 98l30 58l155 -109zM70 -7v500l92 14v-500z" />
<glyph unicode="&#xed;" horiz-adv-x="232" d="M109 567l-25 47l154 109l30 -58zM70 -7v500l92 14v-500z" />
<glyph unicode="&#xee;" horiz-adv-x="232" d="M48 570l-72 14l143 136l144 -136l-72 -14l-72 69zM70 -7v500l92 14v-500z" />
<glyph unicode="&#xef;" horiz-adv-x="232" d="M194 567l-61 76l61 78l58 -78zM47 567l-60 76l60 78l59 -78zM70 -7v500l92 14v-500z" />
<glyph unicode="&#xf0;" horiz-adv-x="607" d="M360 621l64 -68q147 -155 147 -307q0 -110 -77 -184.5t-191 -74.5q-113 0 -190.5 76t-77.5 188q0 108 77 185t185 77q14 0 50 -2l-61 72l-91 -47l-15 58l62 34l-49 44l66 38l56 -44l89 48l21 -59zM130 253q0 -75 51 -124t128 -49q71 0 119 48t48 120q0 76 -50 127.5 t-123 51.5q-72 0 -122.5 -50.5t-50.5 -123.5z" />
<glyph unicode="&#xf1;" horiz-adv-x="563" d="M173 586l-46 36q44 65 113 65q31 0 67 -18q37 -18 55 -18q34 0 61 33l46 -37q-43 -61 -104 -61q-20 0 -33.5 4t-55.5 23q-18 9 -36 9q-37 0 -67 -36zM70 -7v500l92 14v-69q32 41 67 58.5t84 17.5q89 0 138 -57q24 -28 33 -60t9 -88v-302l-92 -14v316q0 40 -3.5 56 t-16.5 31q-27 32 -82 32q-66 0 -104 -43q-33 -36 -33 -104v-274z" />
<glyph unicode="&#xf2;" horiz-adv-x="607" d="M330 567l-193 95l30 61l188 -109zM35 250q0 110 78 187t190 77q116 0 192 -76.5t76 -192.5q0 -110 -77 -184t-191 -74q-113 0 -190.5 75.5t-77.5 187.5zM130 255q0 -76 50.5 -125.5t128.5 -49.5q72 0 119.5 48t47.5 121q0 76 -49 127.5t-123 51.5q-73 0 -123.5 -50.5 t-50.5 -122.5z" />
<glyph unicode="&#xf3;" horiz-adv-x="607" d="M281 567l-25 47l188 109l30 -61zM35 250q0 110 78 187t190 77q116 0 192 -76.5t76 -192.5q0 -110 -77 -184t-191 -74q-113 0 -190.5 75.5t-77.5 187.5zM130 255q0 -76 50.5 -125.5t128.5 -49.5q72 0 119.5 48t47.5 121q0 76 -49 127.5t-123 51.5q-73 0 -123.5 -50.5 t-50.5 -122.5z" />
<glyph unicode="&#xf4;" horiz-adv-x="607" d="M136 584l170 136l170 -136l-79 -14l-91 69l-91 -69zM35 250q0 110 78 187t190 77q116 0 192 -76.5t76 -192.5q0 -110 -77 -184t-191 -74q-113 0 -190.5 75.5t-77.5 187.5zM130 255q0 -76 50.5 -125.5t128.5 -49.5q72 0 119.5 48t47.5 121q0 76 -49 127.5t-123 51.5 q-73 0 -123.5 -50.5t-50.5 -122.5z" />
<glyph unicode="&#xf5;" horiz-adv-x="607" d="M201 586l-46 36q44 65 113 65q31 0 67 -18q37 -18 55 -18q34 0 61 33l46 -37q-43 -61 -104 -61q-20 0 -33.5 4t-55.5 23q-18 9 -36 9q-37 0 -67 -36zM35 250q0 110 78 187t190 77q116 0 192 -76.5t76 -192.5q0 -110 -77 -184t-191 -74q-113 0 -190.5 75.5t-77.5 187.5z M130 255q0 -76 50.5 -125.5t128.5 -49.5q72 0 119.5 48t47.5 121q0 76 -49 127.5t-123 51.5q-73 0 -123.5 -50.5t-50.5 -122.5z" />
<glyph unicode="&#xf6;" horiz-adv-x="607" d="M400 567l-62 76l62 78l60 -78zM222 567l-62 76l62 78l60 -78zM35 250q0 110 78 187t190 77q116 0 192 -76.5t76 -192.5q0 -110 -77 -184t-191 -74q-113 0 -190.5 75.5t-77.5 187.5zM130 255q0 -76 50.5 -125.5t128.5 -49.5q72 0 119.5 48t47.5 121q0 76 -49 127.5 t-123 51.5q-73 0 -123.5 -50.5t-50.5 -122.5z" />
<glyph unicode="&#xf7;" d="M274 428l-62 63l62 63l60 -63zM59 299l13 68h416l-14 -68h-415zM212 176l62 63l60 -63l-60 -63z" />
<glyph unicode="&#xf8;" horiz-adv-x="607" d="M29 33l60 58q-53 73 -53 158q0 111 78 188t190 77q94 0 168 -57l63 61l43 -52l-58 -56q52 -74 52 -162q0 -112 -76 -186.5t-191 -74.5q-100 0 -169 56l-64 -62zM159 157l247 237q-48 34 -101 34q-72 0 -123 -50.5t-51 -122.5q0 -52 28 -98zM205 109q43 -29 105 -29 q72 0 119.5 48.5t47.5 121.5q0 52 -25 95z" />
<glyph unicode="&#xf9;" horiz-adv-x="561" d="M313 567l-193 95l30 61l188 -109zM399 -7v69q-67 -75 -151 -75q-38 0 -75.5 14.5t-60.5 38.5q-42 45 -42 152v301l92 14v-315q0 -59 26 -84q30 -28 76 -28q63 0 103 45q19 21 25.5 45.5t6.5 73.5v249l92 14v-500z" />
<glyph unicode="&#xfa;" horiz-adv-x="561" d="M255 567l-25 47l188 109l30 -61zM399 -7v69q-67 -75 -151 -75q-38 0 -75.5 14.5t-60.5 38.5q-42 45 -42 152v301l92 14v-315q0 -59 26 -84q30 -28 76 -28q63 0 103 45q19 21 25.5 45.5t6.5 73.5v249l92 14v-500z" />
<glyph unicode="&#xfb;" horiz-adv-x="561" d="M117 584l170 136l170 -136l-79 -14l-91 69l-91 -69zM399 -7v69q-67 -75 -151 -75q-38 0 -75.5 14.5t-60.5 38.5q-42 45 -42 152v301l92 14v-315q0 -59 26 -84q30 -28 76 -28q63 0 103 45q19 21 25.5 45.5t6.5 73.5v249l92 14v-500z" />
<glyph unicode="&#xfc;" horiz-adv-x="561" d="M374 567l-62 76l62 78l60 -78zM196 567l-62 76l62 78l60 -78zM399 -7v69q-67 -75 -151 -75q-38 0 -75.5 14.5t-60.5 38.5q-42 45 -42 152v301l92 14v-315q0 -59 26 -84q30 -28 76 -28q63 0 103 45q19 21 25.5 45.5t6.5 73.5v249l92 14v-500z" />
<glyph unicode="&#xfd;" horiz-adv-x="485" d="M229 567l-25 47l188 109l30 -61zM73 -162l133 259l-209 390l87 26l168 -316l151 316l86 -26l-326 -660z" />
<glyph unicode="&#xfe;" horiz-adv-x="630" d="M162 62v-222l-92 -13v853l92 13v-259q41 45 82 64t94 19q108 0 182.5 -77t74.5 -189q0 -108 -76.5 -184.5t-185.5 -76.5q-50 0 -88.5 16t-82.5 56zM157 255q0 -74 50.5 -125t124.5 -51q70 0 119 51.5t49 124.5t-47.5 123t-118.5 50q-72 0 -124.5 -51.5t-52.5 -121.5z" />
<glyph unicode="&#xff;" horiz-adv-x="485" d="M343 567l-62 76l62 78l60 -78zM165 567l-62 76l62 78l60 -78zM73 -162l133 259l-209 390l87 26l168 -316l151 316l86 -26l-326 -660z" />
<glyph unicode="&#x152;" horiz-adv-x="1118" d="M668 0v90q-65 -59 -123.5 -83t-138.5 -24q-156 0 -259 97q-51 49 -79.5 115.5t-28.5 136.5t28 137t78 116q102 99 260 99q160 0 263 -112v95h375l23 -90h-297v-188h240v-90h-240v-209h322l-25 -90h-398zM139 337q0 -110 77 -185.5t189 -75.5q107 0 183.5 75t76.5 180 q0 103 -74 179q-80 81 -187 81q-111 0 -188 -74t-77 -180z" />
<glyph unicode="&#x153;" horiz-adv-x="987" d="M936 164l22 -102q-58 -41 -105 -58t-104 -17q-70 0 -121.5 26t-103.5 88q-52 -61 -104.5 -87.5t-120.5 -26.5q-110 0 -187 76.5t-77 185.5q0 111 78 188t191 77q68 0 119.5 -24.5t100.5 -81.5q50 56 100.5 81t115.5 25q73 0 131.5 -35t94.5 -100l-364 -215q24 -38 50 -55 q44 -29 97 -29q45 0 87 19t100 65zM575 243l256 150q-35 35 -90 35q-67 0 -117 -47.5t-50 -112.5q0 -14 1 -25zM130 258q0 -76 50 -127t124 -51q72 0 122 51t50 124q0 72 -50.5 122.5t-122.5 50.5q-71 0 -122 -50t-51 -120z" />
<glyph unicode="&#x178;" horiz-adv-x="550" d="M377 720l-67 80l67 80l65 -80zM181 720l-66 80l66 80l65 -80zM129 3l122 251l-258 401l99 25l206 -319l146 319l99 -25l-313 -675z" />
<glyph unicode="&#x2c6;" horiz-adv-x="500" d="M80 584l170 136l170 -136l-79 -14l-91 69l-91 -69z" />
<glyph unicode="&#x2dc;" horiz-adv-x="500" d="M125 586l-46 36q44 65 113 65q31 0 67 -18q37 -18 55 -18q34 0 61 33l46 -37q-43 -61 -104 -61q-20 0 -33.5 4t-55.5 23q-18 9 -36 9q-37 0 -67 -36z" />
<glyph unicode="&#x2000;" horiz-adv-x="453" />
<glyph unicode="&#x2001;" horiz-adv-x="906" />
<glyph unicode="&#x2002;" horiz-adv-x="453" />
<glyph unicode="&#x2003;" horiz-adv-x="906" />
<glyph unicode="&#x2004;" horiz-adv-x="302" />
<glyph unicode="&#x2005;" horiz-adv-x="226" />
<glyph unicode="&#x2006;" horiz-adv-x="151" />
<glyph unicode="&#x2007;" horiz-adv-x="151" />
<glyph unicode="&#x2008;" horiz-adv-x="113" />
<glyph unicode="&#x2009;" horiz-adv-x="181" />
<glyph unicode="&#x200a;" horiz-adv-x="50" />
<glyph unicode="&#x2010;" horiz-adv-x="216" d="M0 210v79h216v-79h-216z" />
<glyph unicode="&#x2011;" horiz-adv-x="216" d="M0 210v79h216v-79h-216z" />
<glyph unicode="&#x2012;" horiz-adv-x="216" d="M0 210v79h216v-79h-216z" />
<glyph unicode="&#x2013;" d="M62 210v80h423v-80h-423z" />
<glyph unicode="&#x2014;" horiz-adv-x="651" d="M0 210v79h651v-79h-651z" />
<glyph unicode="&#x2018;" horiz-adv-x="217" d="M122 427q-43 30 -58.5 53t-15.5 55q0 33 46 99l28 40l58 -40l-30 -39q-18 -23 -18 -43q0 -35 48 -54z" />
<glyph unicode="&#x2019;" horiz-adv-x="217" d="M95 427l-58 40l29 39q19 24 19 42q0 35 -48 55l58 71q43 -30 58.5 -53t15.5 -55q0 -33 -46 -99z" />
<glyph unicode="&#x201a;" horiz-adv-x="218" d="M37 -50l31 45q16 23 16 44q0 26 -38 47l-9 5l66 65q67 -40 67 -104q0 -43 -48 -102l-33 -41z" />
<glyph unicode="&#x201c;" horiz-adv-x="372" d="M119 426q-71 46 -71 101q0 24 8.5 44.5t34.5 60.5l28 42l56 -42l-28 -43q-18 -29 -18 -46q0 -14 8 -23.5t30 -23.5l8 -5zM270 426q-68 40 -68 104q0 39 49 102l32 41l53 -41l-31 -45q-17 -24 -17 -44q0 -28 39 -47l3 -2q4 -1 6 -3z" />
<glyph unicode="&#x201d;" horiz-adv-x="372" d="M254 426l-57 42l29 43q18 26 18 45q0 27 -38 47l-9 5l57 66q71 -46 71 -101q0 -24 -8.5 -43.5t-35.5 -61.5zM89 426l-52 42l31 44q16 23 16 44q0 26 -38 47l-9 5l66 66q67 -42 67 -105q0 -40 -48 -101z" />
<glyph unicode="&#x201e;" horiz-adv-x="372" d="M197 -50l29 44q18 26 18 45q0 27 -38 47l-9 5l57 65q71 -45 71 -100q0 -24 -8.5 -44t-35.5 -62l-27 -41zM37 -50l31 45q16 23 16 44q0 26 -38 47l-9 5l66 65q67 -40 67 -104q0 -43 -48 -102l-33 -41z" />
<glyph unicode="&#x2022;" horiz-adv-x="667" d="M335 200q-58 0 -98.5 40.5t-40.5 97.5q0 58 40.5 98.5t99.5 40.5q56 0 96.5 -41t40.5 -98t-40.5 -97.5t-97.5 -40.5z" />
<glyph unicode="&#x2026;" horiz-adv-x="789" d="M589 66l68 90l68 -90l-68 -88zM326 66l68 90l68 -90l-68 -88zM63 66l68 90l68 -90l-68 -88z" />
<glyph unicode="&#x202f;" horiz-adv-x="181" />
<glyph unicode="&#x2039;" horiz-adv-x="277" d="M188 104l-145 142l145 150l38 -40l-103 -110l103 -104z" />
<glyph unicode="&#x203a;" horiz-adv-x="277" d="M88 104l-38 40l103 110l-103 104l38 38l145 -142z" />
<glyph unicode="&#x205f;" horiz-adv-x="226" />
<glyph unicode="&#x20ac;" horiz-adv-x="732" d="M36 222l35 83h53q-1 9 -1 27q0 14 1 25h-88l35 83h69q34 112 124 178t208 66q129 0 224 -79l-42 -97q-77 82 -182 82q-73 0 -135.5 -41.5t-91.5 -108.5h379l-35 -83h-365q-1 -8 -1 -22q0 -19 1 -30h343l-35 -83h-284q31 -67 91.5 -106.5t132.5 -39.5q105 0 183 81v-126 q-77 -48 -182 -48q-118 0 -206 63t-126 176h-105z" />
<glyph unicode="&#x2122;" horiz-adv-x="944" d="M342 259l106 430l171 -298l171 298l106 -430l-90 -11l-53 221l-134 -236l-136 236l-53 -221zM135 248v341h-134l32 78h305v-78h-115v-330z" />
<glyph unicode="&#x25fc;" horiz-adv-x="520" d="M0 520h520v-520h-520v520z" />
</font>
</defs>
</svg>
