<?xml version="1.0" ?><!DOCTYPE svg  PUBLIC '-//W3C//DTD SVG 1.1//EN'  'http://www.w3.org/Graphics/SVG/1.1/DTD/svg11.dtd'><svg enable-background="new 0 0 550 550" id="Layer_1" version="1.1" viewBox="0 0 550 550" xml:space="preserve" xmlns="http://www.w3.org/2000/svg" xmlns:xlink="http://www.w3.org/1999/xlink"><g><g><circle cx="275" cy="275" fill="#CF4C2C" r="256"/><g><path d="M278,258.3c-1.4,0-2.7,0-4.1,0c-26.1,0-51.7,0.5-76.8,1.5c-18.5,0-33.5,14.8-33.5,33.1      c-1.1,14.5-1.6,29-1.6,43.4c0,14.5,0.4,28.9,1.6,43.5c0,18.3,15,33.1,33.5,33.1c26.4,1.1,53.4,1.6,80.9,1.6      c27.5,0,54.5-0.4,80.9-1.6c18.5,0,33.5-14.8,33.5-33.1c1.1-14.5,1.6-29,1.6-43.5c0-14.5-0.4-28.9-1.6-43.4      c0-18.3-15-33.1-33.5-33.1c-25.1-1.1-50.7-1.5-76.8-1.5C280.8,258.3,279.4,258.3,278,258.3" fill="#FFFFFF"/><polygon fill="#FFFFFF" points="234.6,136.3 224.7,177.3 223.7,177.3 213.5,136.3 197.5,136.3 216.4,198.2 216.4,238.9       232.2,238.9 232.2,196.3 250.7,136.3     "/><path d="M265.9,226c-1-1.1-1.5-2.8-1.5-4.8v-41.2c0-1.7,0.5-3,1.6-4c1.1-1,2.5-1.5,4.2-1.5      c1.9,0,3.4,0.5,4.5,1.5c1.1,1,1.7,2.3,1.7,4v41.2c0,2-0.5,3.6-1.7,4.8c-1.1,1.2-2.6,1.7-4.6,1.7      C268.4,227.7,266.9,227.1,265.9,226 M255.6,166.5c-3.8,3.5-5.7,8.1-5.7,14l0,39.3c0,6.4,1.8,11.5,5.5,15.3      c3.7,3.8,8.6,5.7,14.8,5.7c6.4,0,11.4-1.9,15.1-5.5c3.6-3.7,5.5-8.8,5.5-15.3v-39.1c0-5.8-1.9-10.5-5.6-14.1      c-3.7-3.7-8.5-5.5-14.3-5.5C264.5,161.3,259.4,163,255.6,166.5" fill="#FFFFFF"/><path d="M328.8,163.2v57.4c-1.3,1.7-2.8,3-4.3,4.1c-1.6,1.1-2.9,1.6-3.9,1.6c-1.3,0-2.3-0.4-2.9-1.2      c-0.6-0.8-0.9-2.1-0.9-3.9v-58h-14.1v63.3c0,4.5,0.8,7.9,2.4,10.1c1.7,2.2,4.1,3.4,7.4,3.4c2.6,0,5.4-0.8,8.2-2.4      c2.8-1.6,5.5-4,8.1-7v8.4h14.1v-75.7H328.8z" fill="#FFFFFF"/><path d="M222.6,278.3H174v14.9h16.4v87.7h15.8v-87.7h16.4V278.3z M248.5,362.7c-1.3,1.7-2.7,3-4.4,4.1      c-1.6,1.1-2.9,1.6-3.9,1.6c-1.3,0-2.3-0.4-2.8-1.2c-0.6-0.8-0.9-2.1-0.9-3.9v-58h-14.1v63.3c0,4.5,0.8,7.9,2.5,10.1      c1.7,2.2,4.1,3.4,7.4,3.4c2.6,0,5.4-0.8,8.2-2.4c2.8-1.6,5.5-4,8.1-7v8.4h14.1v-75.7h-14.1V362.7z M303,304.3      c-2.2,0-4.3,0.6-6.5,1.8c-2.1,1.2-4.1,2.9-6,5.3v-33h-14.2v102.6h14.2v-5.8c1.8,2.3,3.8,4,6,5.1c2.2,1.1,4.6,1.7,7.4,1.7      c4.2,0,7.4-1.4,9.6-4.3c2.2-2.9,3.3-7,3.3-12.4v-42c0-6.2-1.2-10.9-3.5-14.1C310.9,305.9,307.5,304.3,303,304.3 M302.3,363.2      c0,2.4-0.4,4.2-1.2,5.2c-0.8,1.1-2.1,1.6-3.8,1.6c-1.2,0-2.3-0.3-3.4-0.8c-1.1-0.5-2.2-1.4-3.3-2.7v-47.2c1-1.1,1.9-1.8,2.9-2.3      c1-0.5,2-0.8,3-0.8c1.9,0,3.3,0.7,4.4,2c1,1.3,1.5,3.3,1.5,5.8V363.2z M368.8,344.9v-19.3c0-7.2-1.7-12.7-5.2-16.5      c-3.5-3.8-8.4-5.7-14.8-5.7c-6.3,0-11.4,2.1-15.4,6.2c-4,4.1-6,9.5-6,16.1v34c0,7.3,1.8,13,5.4,17.2c3.6,4.2,8.6,6.2,14.9,6.2      c7,0,12.3-2,15.8-5.9c3.5-3.9,5.3-9.8,5.3-17.5v-5.7h-14.5v5.3c0,4.5-0.5,7.3-1.4,8.6c-0.9,1.3-2.6,2-4.9,2      c-2.2,0-3.8-0.8-4.7-2.3c-1-1.5-1.4-4.3-1.4-8.3v-14.3H368.8z M341.9,325.5c0-3.2,0.5-5.4,1.5-6.8c1-1.4,2.6-2,4.8-2      c2.2,0,3.7,0.7,4.7,2c1,1.4,1.5,3.6,1.5,6.8v7.7h-12.4V325.5z" fill="#CF4C2C"/></g></g></g></svg>